<?xml version="1.0" encoding="utf-8"?>
<!-- Generator: Adobe Illustrator 23.0.0, SVG Export Plug-In . SVG Version: 6.00 Build 0)  -->
<svg version="1.1" xmlns="http://www.w3.org/2000/svg" xmlns:xlink="http://www.w3.org/1999/xlink" x="0px" y="0px"
	 viewBox="0 0 1920 1080" style="enable-background:new 0 0 1920 1080;" xml:space="preserve">
<style type="text/css">
	.st0{opacity:0.1;fill:#2A94F4;}
	.st1{fill:#CCE9FF;}
	.st2{fill:#0B4870;}
	.st3{fill:#FFBE55;}
	.st4{clip-path:url(#SVGID_2_);}
	.st5{fill:#FFE3CA;}
	.st6{fill:#0E538C;}
	.st7{fill:#2D24A3;}
	.st8{fill:#FFFFFF;}
</style>
<g id="Background">
	<path class="st0" d="M203.1,536.4c-67,362.7,297.1,651,636.7,388.3c594.1-459.5,300-278.3,619-224.7
		c319,53.6,347.6-481.4,91.5-474.5s-334.8,220.1-602.4,23.7S259,234.2,203.1,536.4z"/>
</g>
<g id="Objects">
	<circle class="st1" cx="897.5" cy="667.1" r="412.9"/>
	<circle class="st2" cx="439.3" cy="515.7" r="61.6"/>
	<circle class="st3" cx="477.8" cy="372.3" r="32.6"/>
	<circle class="st2" cx="543.1" cy="469" r="10.8"/>
	<g>
		<defs>
			<path id="SVGID_1_" d="M1310.4,667.1c0,228-184.9,412.9-412.9,412.9S484.7,895.1,484.7,667.1S641.9,45,869.9,45
				c169.2,0,542.6,4.1,614.2,209.2C1509,325.6,1310.4,608.3,1310.4,667.1z"/>
		</defs>
		<clipPath id="SVGID_2_">
			<use xlink:href="#SVGID_1_"  style="overflow:visible;"/>
		</clipPath>
		<g class="st4">
			<g>
				<path class="st2" d="M726.8,264.9c0,0-10.4-83.7,15.8-121.9c34.2-49.7,131.2-63.6,177.5-36.2c51.2,30.3,92,108.5,74.1,177
					c76.1,21.9,94.3,108.4,40.8,130.6l45.8,98.1c28.5,61-0.6,133.9-66,165.4l-117.1,56.4c0,0-216.1,34-258.9-66.1
					c-42.8-100.1,41-173.1,41-173.1S611.4,419.1,644,345C676.7,270.9,726.8,264.9,726.8,264.9z"/>
				<path class="st5" d="M1059.1,551.7c0,0,196.4,31.1,249.6,28.8c41.7,2.3,110.4-226,116.4-240c33.3-20.9,41.6-49.5,41.1-65.3
					c-0.5-15.8-43-29.1-47.1-21.1c7-20.9,8.6-27.5,10.5-34.7c4-14.9-7.4-26.2-23.7,29.9c-16.1,55.3-14.5,46.2-18.4,65.7
					c-26.3,50.5-94.1,168.3-98.7,186.1c-87.9-2.1-236.8-36.3-236.8-36.3L1059.1,551.7z"/>
				<path class="st5" d="M665.8,498.4c0,0-93.1,174.7-111.2,223.5c-18,36.3,169,203.5,179.5,215.6c6.5,39.7,23.7,53.4,38.3,60.5
					c14.6,7,42.9-24.7,37.2-32.1c16.5,16.2,21.9,20.7,27.7,25.9c12.1,10.6,26.8,5.8-18.3-35.4c-44.5-40.7-36.7-34.9-53.1-47.7
					c-36.2-47.5-118.2-164.1-132.7-176.7c35.3-77.7,123.3-195,123.3-195L665.8,498.4z"/>
				<path class="st2" d="M879.1,1080l54.3-235.6l92.5,55.4c0,0,7.5,67.8,17.1,155.7C1043,1055.5,970.6,1081.7,879.1,1080"/>
				<path class="st6" d="M972.4,1072.8c14.8-89.4,26.6-161.4,26.6-161.4s-253.1-35.2-254,34c-0.3,21.2,2.2,62,8.1,108.6
					C886.2,1096.8,972.4,1072.8,972.4,1072.8z"/>
				<path class="st7" d="M500.6,1878.3"/>
				<path class="st3" d="M974.3,617.1c-7.5,17.4,49.4,259,58.9,314.7c0,0-1.2-0.2-3.5-0.6c-24.7-3.7-175.8-23.6-297.9,27.3
					l-11.2-341.3l-0.5-12.7c0,0,0-12.9,1.2-32.6v-0.2c2.8-40.6,11.2-109.1,37.3-153.1c13.5-22.8,31.4-39.1,55.9-41.5
					c75.9-7.5,75.5,23.6,146,41l114.4,28.4c0,0-12.8,88.7,0,115.1h-79.4C995.5,561.5,981.7,599.5,974.3,617.1z"/>
				<path class="st5" d="M930.7,149.4c0,0,69.6,104.4,33.1,155.4C936.5,343,890.7,363,890.7,363v55c0,0-5.5,4.9-15.1,5.4
					c-16.7,0.9-61.1-25.9-61.1-25.9V180.9L930.7,149.4z"/>
				<path class="st3" d="M720.4,631.2c0,0,105-121.7,88.3-180.3c-16.7-58.6-96.1-38.5-140.5,29c-44.4,67.5-62,90.6-62,90.6
					S651.9,632.3,720.4,631.2z"/>
				<path class="st2" d="M930.5,139.5c0,0,5.4,108.7-47,135s-12.8,91.1-62.7,139.5c-14.8,14.3-36.8,11.9-53.7,6.9
					c-24.2-7.2-51.9-2-68.8,15.5c-1.6,1.7-3.1,3.5-4.3,5.3C629.2,398.9,793.4,161,793.4,161L930.5,139.5z"/>
			</g>
		</g>
	</g>
	<path class="st3" d="M1120.8,733.8c-22.7,35.1-35.9,76.9-35.9,121.8c0,123.9,100.5,224.4,224.4,224.4s224.4-100.5,224.4-224.4
		s-100.5-224.4-224.4-224.4c-54.7,0-104.9,19.6-143.8,52.2l-76.1-20.1L1120.8,733.8z"/>
	<g>
		<path class="st3" d="M1384.2,61.6c0,34-27.6,77.9-61.6,77.9s-61.6-43.9-61.6-77.9S1288.5,0,1322.6,0S1384.2,27.6,1384.2,61.6z"/>
		<g>
			<path class="st8" d="M1324.5,167.4c-6.3,0-12.2-4.4-17.4-13.1l0,0c-3.7-6.2-0.9-24.9,2.1-44.7c0.8-5.2,1.5-10.3,2.2-14.9
				c-4.4-13.7-3.4-22.6-1.5-25.2c0.7-1,1.7-1.3,2.6-0.9c1.8,0.9,2.8,4.7,2.8,10.8c0,4-0.5,9.1-1.2,14.8c0.3,1,0.7,2,1.1,3.1
				c3.6,9.6,7.2,7.5,8.4,6.7c2.9-1.7,5.7-6.5,7.8-12c-0.8-12.4,0.1-21.3,1.5-23.9c0.7-1.4,1.6-1.5,2-1.5c1.4,0.1,2.1,2,2.3,2.6
				c1.8,4.8,0.2,14.9-3.1,23.5c1,14.5,4.4,34.4,12.8,55.3l0.4,0.9l-0.5,0.8c-0.4,0.7-9.7,17.2-22,17.4
				C1324.7,167.4,1324.6,167.4,1324.5,167.4z M1313.2,100c-0.5,3.3-1,6.7-1.5,10.2c-2.6,17.4-5.6,37-2.6,42
				c4.8,7.9,10,11.9,15.5,11.8c9.5-0.2,17.4-12,19.4-15.2c-7.3-18.4-10.9-36.4-12.3-50.8c-2.1,4.2-4.6,7.6-7.2,9.1
				C1322.1,108.7,1317.3,109.7,1313.2,100z M1311.6,72c-0.7,1.3-1.6,6.6,0.5,15.7c0.3-3.1,0.5-5.9,0.5-8.2
				C1312.6,74.8,1311.9,72.7,1311.6,72z M1334.7,70.8c-0.6,2-1.2,7-1.1,14.2C1335.2,79.2,1335.8,73.6,1334.7,70.8
				C1334.7,70.8,1334.7,70.8,1334.7,70.8z"/>
		</g>
		<path class="st2" d="M1322.6,175.8L1322.6,175.8c-12.4,0-22.7-9.4-23.7-21.7l-2.1-23.6l6.3,2.4c12.9,4.9,27.1,4.8,39.9-0.3
			l5.3-2.1l-2.1,23.6C1345.2,166.4,1334.9,175.8,1322.6,175.8z"/>
	</g>
	<g>
		<path class="st3" d="M1577.3,179.3c-7.2,17.1-30.4,33.4-47.5,26.2s-21.7-35.1-14.5-52.3c7.2-17.1,26.9-25.2,44.1-18
			S1584.5,162.1,1577.3,179.3z"/>
		<g>
			<path class="st8" d="M1524.8,219.9c-3.2-1.3-5.2-4.8-6-10.3l0,0c-0.6-3.9,4.8-12.7,10.5-22c1.5-2.4,2.9-4.8,4.2-7
				c0.7-7.8,3.1-12.1,4.6-13c0.6-0.4,1.1-0.3,1.5,0.1c0.7,0.8,0.4,3-0.9,6c-0.8,2-2.2,4.5-3.8,7.2c0,0.6-0.1,1.2-0.1,1.8
				c-0.2,5.6,2,5.3,2.8,5.2c1.8-0.3,4.2-2.1,6.5-4.4c2.2-6.4,4.6-10.7,5.8-11.7c0.6-0.5,1.1-0.4,1.3-0.3c0.7,0.4,0.6,1.4,0.6,1.8
				c-0.1,2.8-3.1,7.5-6.6,11.2c-2.6,7.5-5.1,18.2-5.2,30.5l0,0.5l-0.4,0.3c-0.3,0.3-8.5,6.6-14.7,4.1
				C1524.9,219.9,1524.9,219.9,1524.8,219.9z M1533.4,183.6c-0.9,1.6-1.9,3.2-2.9,4.8c-5,8.2-10.6,17.5-10.2,20.6
				c0.7,5,2.5,8.1,5.3,9.2c4.8,1.9,11.3-2.4,13-3.6c0.2-10.8,2.2-20.6,4.6-28.2c-1.9,1.7-3.9,2.8-5.5,3.1
				C1536,189.8,1533.4,189.3,1533.4,183.6z M1538.5,169.1c-0.6,0.5-2.2,3-3,8c0.8-1.5,1.5-2.9,2-4
				C1538.4,170.8,1538.6,169.6,1538.5,169.1z M1550.4,173.4c-0.7,0.9-2.1,3.3-3.5,6.9C1548.9,177.8,1550.4,175.1,1550.4,173.4
				C1550.4,173.4,1550.4,173.4,1550.4,173.4z"/>
		</g>
		<path class="st2" d="M1522.1,223.7L1522.1,223.7c-6.2-2.6-9.4-9.5-7.4-15.9l4-12.3l2.7,2.5c5.4,5.2,12.6,8.1,20.1,8.3l3.1,0.1
			l-6,11.4C1535.5,223.8,1528.3,226.3,1522.1,223.7z"/>
	</g>
	<g>
		<path class="st3" d="M1337.6,277.1c1.2,13.8-8.3,32.6-22.1,33.8c-13.8,1.2-26.6-15.5-27.8-29.3s8.9-26,22.7-27.2
			S1336.3,263.3,1337.6,277.1z"/>
		<g>
			<path class="st8" d="M1317.2,322.1c-2.6,0.2-5.1-1.3-7.5-4.7l0,0c-1.7-2.4-1.3-10.1-0.8-18.2c0.1-2.1,0.2-4.2,0.3-6.1
				c-2.3-5.4-2.2-9-1.5-10.1c0.3-0.4,0.6-0.6,1-0.5c0.8,0.3,1.3,1.8,1.5,4.3c0.1,1.6,0.1,3.7,0,6.1c0.2,0.4,0.4,0.8,0.6,1.2
				c1.8,3.8,3.2,2.8,3.6,2.4c1.1-0.8,2.1-2.8,2.7-5.1c-0.8-5-0.7-8.6-0.3-9.7c0.2-0.6,0.6-0.7,0.8-0.7c0.6,0,0.9,0.7,1,1
				c0.9,1.9,0.6,6-0.4,9.7c0.9,5.8,3,13.8,7.2,21.9l0.2,0.4l-0.2,0.4c-0.1,0.3-3.3,7.3-8.3,7.9
				C1317.3,322.1,1317.3,322.1,1317.2,322.1z M1310.2,295.2c-0.1,1.3-0.2,2.8-0.2,4.2c-0.4,7.1-0.9,15.2,0.5,17.1
				c2.2,3,4.5,4.5,6.7,4.2c3.8-0.4,6.6-5.5,7.3-6.9c-3.6-7.2-5.7-14.4-6.9-20.2c-0.7,1.8-1.6,3.2-2.6,4
				C1314.1,298.4,1312.2,299,1310.2,295.2z M1308.5,283.9c-0.3,0.6-0.4,2.8,0.8,6.3c0-1.3,0-2.4-0.1-3.3
				C1309,285,1308.7,284.2,1308.5,283.9z M1317.9,282.6c-0.2,0.8-0.2,2.9,0.1,5.8C1318.4,286,1318.4,283.7,1317.9,282.6
				C1317.9,282.6,1317.9,282.6,1317.9,282.6z"/>
		</g>
		<path class="st2" d="M1316.8,325.6L1316.8,325.6c-5,0.5-9.5-3-10.4-7.9l-1.7-9.5l2.6,0.7c5.4,1.5,11.2,0.9,16.2-1.6l2.1-1.1l0,9.6
			C1325.6,321,1321.8,325.2,1316.8,325.6z"/>
	</g>
</g>
</svg>
