<?xml version="1.0" encoding="utf-8"?>
<!-- Generator: Adobe Illustrator 23.0.0, SVG Export Plug-In . SVG Version: 6.00 Build 0)  -->
<svg version="1.1" id="Credit_Card" xmlns="http://www.w3.org/2000/svg" xmlns:xlink="http://www.w3.org/1999/xlink" x="0px"
	 y="0px" viewBox="0 0 1920 1080" style="enable-background:new 0 0 1920 1080;" xml:space="preserve">
<style type="text/css">
	.st0{opacity:0.1;fill:#2A94F4;}
	.st1{fill:#0B4870;}
	.st2{fill:#FFBE55;}
	.st3{fill:#0E538C;}
	.st4{fill:#F7F7F7;}
	.st5{fill:#FCD2B1;}
	.st6{fill:#F7D9C1;}
	.st7{fill:#2A94F4;}
	.st8{fill:#FFE3CA;}
</style>
<path class="st0" d="M1190.4,6.3c-173.5,0-327.3,83.3-422.6,211.7c-50.2-20.9-105.3-32.4-163.2-32.4c-232.6,0-421.1,186.3-421.1,416
	s188.5,416,421.1,416c98,0,188.2-33.1,259.8-88.6c89.5,70.4,202.8,112.4,326,112.4c289.3,0,523.9-231.7,523.9-517.6
	S1479.7,6.3,1190.4,6.3z"/>
<ellipse class="st0" cx="929.1" cy="996.5" rx="735.6" ry="83.5"/>
<path class="st1" d="M375.1,197.9c0,0,9.1-5.8,6.5-19.6c-2.6-13.8-9.5-31.6-30.7-27.2s-20.3,8-28.5-0.7c-8.2-8.6-36.5,11-30.1,20.4
	c3,4.5,4.3,13.1-8.1,18.3c-12.4,5.2-13.7,36.4,10.4,33c6.1-0.9,5.7,8.4,2.4,12c-7.3,8,10.2,28.5,23.6,13.8
	C334.1,233.2,375.1,197.9,375.1,197.9z"/>
<path class="st2" d="M451,1026.7h1055.3c38.1,0,68.9-30.9,68.9-68.9V373.7c0-38.1-30.9-68.9-68.9-68.9H451
	c-38.1,0-68.9,30.9-68.9,68.9v584.1C382.1,995.8,413,1026.7,451,1026.7z"/>
<rect x="382.1" y="402.4" transform="matrix(-1 -1.047485e-11 1.047485e-11 -1 1957.3533 973.2778)" class="st3" width="1193.2" height="168.4"/>
<rect x="439.6" y="668.6" transform="matrix(-1 -3.701162e-12 3.701162e-12 -1 1718.7178 1378.9266)" class="st4" width="839.5" height="41.8"/>
<rect x="439.6" y="745.4" transform="matrix(-1 -3.809964e-12 3.809964e-12 -1 1495.6456 1522.2675)" class="st4" width="616.4" height="31.6"/>
<rect x="439.6" y="811.9" transform="matrix(-1 -3.803746e-12 3.803746e-12 -1 1495.6456 1655.3574)" class="st4" width="616.4" height="31.6"/>
<polygon class="st5" points="369.1,947.9 365.1,983.3 340.3,983.3 340.3,943.2 "/>
<polygon class="st5" points="272.5,947.9 268.5,983.3 243.7,983.3 243.7,943.2 "/>
<path class="st6" d="M352.8,261.1c-0.8,11.8-5.7,22.1-10.9,22.6c-4.9,0-9.9,0-14.8,0c-5.2-0.5-10.2-10.7-10.9-22.6
	c-1.2-19.5,1.4-26.4,0.1-45.9c-0.8-11.7,41-24.3,40.2-12.6C355.3,222.1,354.1,241.6,352.8,261.1z"/>
<path class="st6" d="M430.9,257.1c0,0,25.4,4,35.8,6.6c28.9,7.1,39.8,20.5,46.8,26.9c7,6.4-8.4,7.2-16.2,13
	c-7.8,5.8-71.1-11-84.4-18.7C399.7,277.1,422.3,257.1,430.9,257.1z"/>
<path class="st7" d="M337.7,277.8c18.1-3.9,15.1-21.5,15.1-21.5s44.5-9.6,68.7-3.9c24.2,5.7,35.1,8.8,37.4,9.6
	c2.3,0.8-18.7,3.5-25.7,28.8c-7,25.3-8.8,29.4-8.8,29.4l-16.2-2.4c0,0-10.7,204.2-14.6,223.8c-3.9,19.6-85.6,26.2-119.5,6.9
	c0,0-3-81.5-3-192.7l-1.6-91.1c0,0,38-3.5,46.6-3.5C316.2,261.1,315.8,282.5,337.7,277.8z"/>
<path class="st8" d="M509.3,286.6c-8.9-6.6-16.9-5.3-46.8,4c-39.8,12.4-53,17.4-59.1,20c-6.1,2.7-9.8,11.3-12.9,21.3
	c-3.1,10,2.2,16.4,2.2,18.5c0,1.3,8.2,5.1,14.3,5.3c3.7,0.1,5.2-5.3,2-19.4c-4.4-19.4,62.4-20.6,71.7-21.9
	C489.7,313.1,530.2,302.2,509.3,286.6z"/>
<path class="st8" d="M193.6,430.5c0-24.3,37.9-99.9,37.9-99.9c0-0.2,0.1-0.3,0.1-0.5c0,0,0-0.1,0-0.1c0-0.1,0.1-0.2,0.1-0.3
	c0,0,0-0.1,0.1-0.1c0-0.1,0.1-0.1,0.1-0.2c0,0,0.1-0.1,0.1-0.1c0,0,0.1-0.1,0.1-0.1c0,0,0.1,0,0.1-0.1c0.1,0,0.1-0.1,0.2-0.1
	c0,0,0.1,0,0.1,0c0.1,0,0.1,0,0.2,0c0.1,0,0.1,0,0.2,0c0.1,0,0.1,0,0.2,0c0.1,0,0.1,0,0.2,0c0.1,0,0.1,0,0.2,0.1
	c0.1,0,0.1,0,0.2,0.1c0.1,0,0.2,0.1,0.2,0.1c0.1,0,0.1,0.1,0.2,0.1c0.1,0,0.2,0.1,0.3,0.1c0.1,0,0.2,0.1,0.2,0.1
	c0.1,0.1,0.2,0.1,0.3,0.2c0.1,0.1,0.2,0.1,0.2,0.2c0.1,0.1,0.2,0.1,0.3,0.2c0.1,0.1,0.2,0.1,0.3,0.2c0.1,0.1,0.2,0.2,0.3,0.2
	c0.1,0.1,0.2,0.1,0.3,0.2c0.1,0.1,0.2,0.2,0.3,0.3c0.1,0.1,0.2,0.2,0.3,0.2c0.1,0.1,0.2,0.2,0.3,0.3c0.1,0.1,0.2,0.2,0.3,0.3
	c0.1,0.1,0.2,0.2,0.4,0.3c0.1,0.1,0.2,0.2,0.3,0.3c0.1,0.1,0.3,0.3,0.4,0.4c0.1,0.1,0.2,0.2,0.3,0.3c0.1,0.1,0.3,0.3,0.4,0.4
	c0.1,0.1,0.2,0.2,0.3,0.3c0.1,0.2,0.3,0.3,0.4,0.5c0.1,0.1,0.2,0.2,0.3,0.3c0.1,0.2,0.3,0.3,0.4,0.5c0.1,0.1,0.2,0.2,0.3,0.3
	c0.2,0.2,0.3,0.4,0.5,0.6c0.1,0.1,0.2,0.2,0.3,0.3c0.2,0.2,0.3,0.4,0.5,0.6c0.1,0.1,0.1,0.2,0.2,0.3c0.2,0.2,0.4,0.5,0.6,0.7
	c0.1,0.1,0.1,0.2,0.2,0.2c0.2,0.3,0.4,0.5,0.6,0.8c0,0.1,0.1,0.1,0.1,0.2c0.2,0.3,0.5,0.6,0.7,1c0,0,0,0,0,0
	c9.6,12.9,14.5,25.6,10.8,31.3c-5,7.8-32.9,47.3-26.5,61.5c6.4,14.3,45.4,72.5,45.4,72.5l-5.9,18.2
	C268.4,523.9,193.6,464.3,193.6,430.5z"/>
<path class="st7" d="M278.9,266.7c0,0-13-14.2-31.4,21.1c-11,21.1-20.3,42.9-27.6,62.3c0,0,28.3,48,40.8,27.5
	c3.6-5.9,13.1-19.9,15.8-26.4C292.3,312.2,278.9,266.7,278.9,266.7z"/>
<path class="st8" d="M367.4,170.8c4.2,6.3,6.1,26.6,4.7,35.2c-5.2,32.9-18.5,54.8-55.2,27.1c-7.9-6-8.7-17.6-10-19.3
	c-1.3-1.7-10.8-4.3-9.9-17.3s9.8-6.3,11.5,2.9l4.6,7.8c0.4,0.6,1,1,1.7,1.1l0,0c1.4,0.1,2.6-1.2,2.3-2.6l-3.1-13.8
	c0,0,13,5.3,17.9-6.5c4.9-11.8,20.8,10.4,27.4-5.2L367.4,170.8z"/>
<path class="st1" d="M336.6,979.8h3.7c0,0,13.7,6.7,25.2,0h5l2.6,7.6c0,0,5.1,11.1,25.5,5.2c13.7-4,20.8,10.6,21.2,24.4h-83.2V979.8
	z"/>
<path class="st1" d="M239.7,979.8h3.7c0,0,13.7,6.7,25.2,0h5l2.6,7.6c0,0,5.1,11.1,25.5,5.2c13.7-4,20.8,10.6,21.2,24.4h-83.2V979.8
	z"/>
<path class="st1" d="M397.2,513.8c0,0,1.3,218.4-2.2,271.6c-3.5,53.2-22.5,170.4-22.5,170.4h-36.4c0,0,10-163.9,10-179.5
	S331.8,621.2,318,618.4c-13-2.6-12.7,111.5-13.4,158.2c-0.7,46.7-30.4,179.1-30.4,179.1h-34.4c0,0,18.8-126.4,15.6-186
	c-1.7-32.5-3.8-85.7-3.3-139.2c0.4-44.6,21.4-112.3,21.4-112.3L397.2,513.8z"/>
<g>
	<path class="st8" d="M272.8,495.4c3.2,1.2,3,1,3,1s30.4,18.6,11.7,38.8c-6.4,6.9-15.3,1.8-18.6-6l-1.8-4.3
		C267.1,524.8,269.7,494.1,272.8,495.4z"/>
</g>
</svg>
