<svg xmlns="http://www.w3.org/2000/svg" viewBox="0 0 500.65072 333.07518"><title>Asset 15</title><g id="Layer_2" data-name="Layer 2"><g id="Layer_1-2" data-name="Layer 1"><path d="M334.18448,332.31534c16.25-5.08,30.83-10.27,48.37-20.12,18.09-10.16,98.45-58.51,108.9-142.19a159.61541,159.61541,0,0,0-6.66-68.16c-3.23-9.47-9.93-28.49-26.84-47.3-20.7-23.04-44.32-31.97-58.17-37.02-29.14-10.63-53.58-10.07-65.22-9.69-12.56.41-34.73,1.33-59.93,12.34-16.44,7.18-26.66,15.37-41.72,27.61-23.86,19.41-27,27.49-68.74,67.57-11.46,11-20.88,19.67-35.26,28.21-9.97,5.92-18.03,9.23-32.9,15.27-36.55,14.85-46.95658,17.85676-58.91658,26.21676-23.26,16.27-21.75342,34.01324-22.75342,37.83324a75.12694,75.12694,0,0,0-1.77,29.97c3.05,20.07,13.86,33.19,20.57,41.13a113.09822,113.09822,0,0,0,32.9,26.44,210.24676,210.24676,0,0,0,26.96,11.89Z" fill="#efedef"/><path d="M273.12163,13.5166C299.36805,2.05634,322.45727,1.08949,335.54839.664c12.11573-.39376,37.57416-.975,67.935,10.09845,14.42589,5.26152,39.0266,14.56329,60.5907,38.5577,17.60788,19.59231,24.58686,39.40669,27.94924,49.26816a166.31552,166.31552,0,0,1,6.93628,70.99515c-10.879,87.16758-94.5869,137.52535-113.429,148.1105" fill="none" stroke="#6a8d99" stroke-miterlimit="10"/><polygon points="345.921 331.825 311.491 331.825 306.961 278.936 350.451 278.936 345.921 331.825" fill="#ffe3cb"/><path d="M311.49087,331.82507c2.673-8.87862,5.45031-17.72331,8.2434-26.56287,1.37745-4.426,2.82258-8.82992,4.23591-13.24426l4.26068-13.23618a.499.499,0,0,1,.94989,0l4.26153,13.2359c1.412,4.41474,2.85993,8.81781,4.23676,13.244l4.171,13.26535,4.07068,13.298-4.53681-13.14632-4.43634-13.179c-1.49237-4.38859-2.91363-8.8003-4.37073-13.20036l-4.34594-13.20846h.94977l-4.34675,13.20819c-1.45587,4.40045-2.87988,8.81131-4.37158,13.2001C317.51717,314.28922,314.55611,323.07411,311.49087,331.82507Z" fill="#904d24"/><path d="M306.96065,278.93624c3.81488,8.73636,7.52845,17.51441,11.22663,26.29879l5.50226,13.195,5.47815,13.205h-.92377l5.47735-13.20533c1.834-4.39836,3.63312-8.81109,5.50141-13.19539l5.56531-13.16914,5.663-13.129-5.20959,13.3154-5.30732,13.27523c-1.75586,4.43049-3.58093,8.83255-5.37109,13.249l-5.39526,13.239a.49883.49883,0,0,1-.92389,0l-5.39447-13.23938-5.3703-13.24932C313.92892,296.681,310.39406,287.82946,306.96065,278.93624Z" fill="#904d24"/><path d="M309.22573,308.09879c3.2467-.20622,6.49335-.30284,9.74-.38284,3.24664-.09141,6.49335-.10429,9.74-.11685,3.24665.01122,6.49335.02448,9.74.1151l4.87.13949c1.62335.08307,3.2467.13173,4.87005.2451-1.62335.11339-3.2467.162-4.87005.24512l-4.87.1395c-3.24664.09062-6.49334.10388-9.74.1151-3.2467-.01258-6.49341-.02544-9.74-.11686C315.71908,308.40165,312.47243,308.305,309.22573,308.09879Z" fill="#904d24"/><rect x="305.0685" y="274.15603" width="47.27462" height="4.78021" rx="1.2906" fill="#904d24"/><rect x="219.59124" y="14.30827" width="16.97137" height="16.97137" rx="4.42305" fill="#dc8758"/><polygon points="181.988 332.075 175.114 332.075 202.973 206.855 217.007 210.633 181.988 332.075" fill="#dc8758"/><polygon points="275.005 332.075 281.878 332.075 254.02 206.855 239.986 210.633 275.005 332.075" fill="#dc8758"/><rect x="109.01508" y="24.32686" width="237.67255" height="199.72765" rx="2.9487" fill="#ffe3cb"/><path d="M248.3518,60.23351a1.07374,1.07374,0,0,1-.0776-2.14459l19.6904-1.44773a1.07361,1.07361,0,1,1,.15731,2.14145L248.4315,60.23037C248.40476,60.23246,248.378,60.23351,248.3518,60.23351Z" fill="#904d24"/><path d="M268.04326,65.74863H248.35285a1.07387,1.07387,0,1,1,0-2.14774h19.69041a1.07387,1.07387,0,0,1,0,2.14774Z" fill="#904d24"/><path d="M268.04326,72.711H248.35285a1.07387,1.07387,0,0,1,0-2.14774h19.69041a1.07387,1.07387,0,1,1,0,2.14774Z" fill="#904d24"/><path d="M268.04326,77.39026H248.35285a1.07387,1.07387,0,0,1,0-2.14774h19.69041a1.07387,1.07387,0,1,1,0,2.14774Z" fill="#904d24"/><path d="M155.00643,193.03782a1.07392,1.07392,0,0,1-1.07387-1.07387V57.71191a1.07387,1.07387,0,0,1,2.14774,0V191.964A1.07392,1.07392,0,0,1,155.00643,193.03782Z" fill="#904d24"/><path d="M323.9799,170.41944H131.72266a1.07387,1.07387,0,1,1,0-2.14774H323.9799a1.07387,1.07387,0,0,1,0,2.14774Z" fill="#904d24"/><path d="M164.9843,157.36364a1.07388,1.07388,0,0,1-.8935-1.668l19.29242-29.04061a1.09567,1.09567,0,0,1,.96848-.47716,1.074,1.074,0,0,1,.894.60615l9.69523,20.166,26.29513-52.55144a1.05831,1.05831,0,0,1,1.066-.58832,1.07339,1.07339,0,0,1,.9302.78442l9.29044,33.87618,8.03147-14.19783a1.0741,1.0741,0,0,1,1.92017.1012l10.89076,25.10379,7.73521-21.717a1.07258,1.07258,0,0,1,.89612-.70735,1.06092,1.06092,0,0,1,1.02668.4997l7.63559,12.26141L297.74036,75.835a1.07386,1.07386,0,0,1,1.96789.11064l5.1596,14.02637,18.16455-34.0597a1.0739,1.0739,0,1,1,1.895,1.011L305.635,93.09769a1.0739,1.0739,0,0,1-1.9553-.13475l-5.1313-13.94877L271.72,132.48951a1.07439,1.07439,0,0,1-.9108.59147,1.10105,1.10105,0,0,1-.96061-.505l-7.472-11.99818-7.902,22.18526a1.07375,1.07375,0,0,1-1.99672.06712l-11.11571-25.62291-8.2517,14.5869a1.07411,1.07411,0,0,1-1.97051-.24434l-9.23748-33.68322-26.02036,52.00192a1.14374,1.14374,0,0,1-.969.59356,1.07394,1.07394,0,0,1-.95956-.60877l-9.8258-20.4376-18.24791,27.46809A1.07231,1.07231,0,0,1,164.9843,157.36364Z" fill="#904d24"/><path d="M136.37941,141.36a1.07392,1.07392,0,0,1-1.07387-1.07387V76.31639a1.07387,1.07387,0,0,1,2.14774,0v63.96969A1.07392,1.07392,0,0,1,136.37941,141.36Z" fill="#904d24"/><path d="M282.06963,187.21805h-.01573l-100.45242-1.41522a1.074,1.074,0,0,1-1.05866-1.08907,1.0901,1.0901,0,0,1,1.08907-1.05867l100.45242,1.41522a1.07392,1.07392,0,0,1-.01468,2.14774Z" fill="#904d24"/><rect x="188.86541" y="216.62392" width="79.18373" height="10.80936" rx="2.28475" fill="#dc8758"/><path d="M27.68805,240.25592c2.41169,1.874,6.66064,6.32428,6.77527,9.662,0,0,7.80886-8.49082,5.58875-15.75216a13.56165,13.56165,0,0,0-6.20117-6.24612s3.06211-1.7178,6.27749,2.49855c0,0-1.14822-11.39937-17.03351-7.26134,0,0-6.20117-12.64855-18.48825-.70275,0,0,8.268-1.054,6.66033,1.52258a24.03343,24.03343,0,0,0-8.249,4.16424A8.26516,8.26516,0,0,0,.24273,233.9121c-.19126,3.08407-.4847,9.18707.115,9.27173.80369.11708,6.08622-4.68463,9.64612-4.33325s-8.15338,10.89168-8.15338,10.89168,2.41169,9.13512,3.44527,9.01805c1.03327-.11708,4.78474-2.73269,3.25338,0l-2.641,2.10809,3.445,4.76279,8.65085-3.8259s-3.82779-10.46231-.30621-7.61254c0,0,2.67927,3.55267,2.71759,6.2072,0,0,11.579-5.036,10.43081-8.491a77.6067,77.6067,0,0,0-4.37636-9.33671,3.948,3.948,0,0,1-.47848-1.65267C25.953,240.04115,26.18254,239.08472,27.68805,240.25592Zm-1.42265-12.128c1.08466-.74834,3.75147-.26687,4.753,2.17306,1.07189,2.60911,1.027,5.51749-.05732,6.26567-1.08467.74834-4.16609-.22763-4.938-2.75223C25.16827,231.00372,25.181,228.87609,26.2654,228.12791Z" fill="#8b9d36"/><path d="M23.09477,223.15686a42.88142,42.88142,0,0,0-3.41748,4.44336,26.03369,26.03369,0,0,0-2.42194,5.01465A55.89512,55.89512,0,0,0,15.6602,237.973c-.462,1.81592-.90332,3.62988-1.27124,5.46191-.38983,1.82666-.73047,3.66553-1.0094,5.51172-.28723,1.84644-.45251,3.70386-.67938,5.571a31.1417,31.1417,0,0,1-3.30139,10.74048,37.4464,37.4464,0,0,0,1.83374-5.29834,29.87139,29.87139,0,0,0,.97485-5.49463A87.06964,87.06964,0,0,1,13.759,243.30334c.3894-1.84009.85351-3.66528,1.33471-5.47729a44.86643,44.86643,0,0,1,1.701-5.38794,26.1121,26.1121,0,0,1,2.62146-5.01245A37.16811,37.16811,0,0,1,23.09477,223.15686Z" fill="#5e7c24"/><path d="M18.58543,229.10827a26.67261,26.67261,0,0,0-3.717,1.07032c-1.20807.43921-2.40216.91528-3.561,1.47241-2.35016,1.04931-4.57929,2.33984-6.854,3.60791.49665-.4209,1.01508-.8147,1.52924-1.217.53827-.36548,1.0683-.74707,1.61932-1.09644A33.60541,33.60541,0,0,1,11.0388,231.066a28.10407,28.10407,0,0,1,3.68042-1.35767A14.54375,14.54375,0,0,1,18.58543,229.10827Z" fill="#5e7c24"/><path d="M13.35179,247.22131c-.88965.6897-1.8158,1.2544-2.72022,1.84351q-.67986.43616-1.32794.90112a3.64771,3.64771,0,0,0-1.099,1.14282,2.39991,2.39991,0,0,1,.76337-1.51709,7.73359,7.73359,0,0,1,1.31384-1.06738A9.46734,9.46734,0,0,1,13.35179,247.22131Z" fill="#5e7c24"/><path d="M15.12541,238.879a30.55319,30.55319,0,0,1,2.92627,3.15625A37.04484,37.04484,0,0,1,20.57,245.538a24.76134,24.76134,0,0,1,1.96582,3.85474,11.73438,11.73438,0,0,1,.90344,4.2146,16.61207,16.61207,0,0,0-1.359-4.01953,30.62232,30.62232,0,0,0-2.05658-3.70972c-.722-1.22095-1.54456-2.3811-2.36469-3.54419C16.8361,241.172,15.98637,240.02624,15.12541,238.879Z" fill="#5e7c24"/><path d="M4.53,275.469l3.21535,2.96695s3.13879-3.3183,3.48329-1.015c0,0-.49761,2.30329-1.11006,2.49849,0,0,7.69387,6.18766,9.24413,1.09309a49.14282,49.14282,0,0,1,2.3541-6.67565s1.7225.93693.22966,8.31528c0,0,5.95438-1.74977,8.16551-4.95984a2.29629,2.29629,0,0,0,.389-1.28081c.0213-1.83519.26318-7.00034,2.35476-5.0611,0,0,1.20576.58558.28709,4.509,0,0,4.84585-5.46307,2.54407-8.82079a3.35735,3.35735,0,0,0-4.11677-1.08625c-1.34571.58416-3.84261,1.66-8.47527,3.64131A92.45638,92.45638,0,0,1,4.53,275.469Z" fill="#8b9d36"/><path d="M15.12541,279.99743a18.36024,18.36024,0,0,1,1.58283-4.86572,11.82163,11.82163,0,0,1,1.35949-2.20288,5.259,5.259,0,0,1,.9339-.92651,1.9584,1.9584,0,0,1,1.22321-.43726,3.51806,3.51806,0,0,0-1.74933,1.658,22.32535,22.32535,0,0,0-1.18878,2.19141C16.54753,276.91736,15.88914,278.46545,15.12541,279.99743Z" fill="#5e7c24"/><path d="M25.58287,277.577a15.27515,15.27515,0,0,1,.40765-4.49878,11.53966,11.53966,0,0,1,.75171-2.15844,3.388,3.388,0,0,1,1.52008-1.697,4.61128,4.61128,0,0,0-1.056,1.89038c-.22442.69433-.41723,1.40088-.59,2.1167C26.26774,274.66345,25.97844,276.11584,25.58287,277.577Z" fill="#5e7c24"/><path d="M79.09546,224.38971s-7.73215,1.10951-.84212,6.575c0,0,1.76079,1.48348,7.50248,3.20119C85.75582,234.16585,89.354,218.51745,79.09546,224.38971Z" fill="#5e7c24"/><path d="M85.75584,234.16589c-.14319-.51245-.237-1.02588-.36584-1.53027-.161-.49634-.27728-1.00147-.45343-1.48535a14.39471,14.39471,0,0,0-1.29285-2.773,10.90422,10.90422,0,0,0-1.94946-2.32642,9.24425,9.24425,0,0,0-2.59882-1.66113,6.54,6.54,0,0,1,2.9148,1.27,8.85021,8.85021,0,0,1,2.18023,2.37768,10.77709,10.77709,0,0,1,1.22638,2.97071c.14032.51538.19312,1.05.282,1.57129C85.7249,233.11145,85.75712,233.63952,85.75584,234.16589Z" fill="#50661a"/><path d="M69.2825,192.7739s8.5723-5.46149,11.13986,6.66537c0,0-4.44872-3.82925-4.50765-1.61407a16.97938,16.97938,0,0,1,3.227,5.74969,6.29574,6.29574,0,0,1-.62009,4.64846c-1.08966,1.98312-3.29121,5.87839-3.67815,5.702-.51807-.23612-1.75194-5.24253-3.981-6.39195s.54852,9.88543.54852,9.88543-4.97627,4.73833-5.53806,4.26875-1.74836-3.5309-1.91269-1.249l.73144,2.321-3.88026,1.63013-3.59384-5.695s6.32577-5.0174,3.14577-4.60285c0,0-2.95883,1.17374-4.01556,2.80515,0,0-4.84338-7.57015-2.82246-9.27145a57.35758,57.35758,0,0,1,6.19441-4.1011,2.90276,2.90276,0,0,0,1.054-1.02849c.285-.49105.34055-1.01439-.85243-.88343-2.14735.23573-6.37838,1.36345-7.74625,3.38909,0,0-1.28141-8.26436,2.85233-11.91423a9.54562,9.54562,0,0,1,6.078-1.49146s-1.13056-2.2413-4.66291-.86186C56.44239,190.73407,61.55838,184.10654,69.2825,192.7739Z" fill="#5e7c24"/><path d="M73.12407,206.35046c-.69959-1.70532-1.356-3.395-2.15393-5.00659a14.55339,14.55339,0,0,0-1.387-2.27515,3.5314,3.5314,0,0,0-2.13543-1.47534,3.11685,3.11685,0,0,1,2.51208,1.14234,9.91445,9.91445,0,0,1,1.58606,2.31958A16.58129,16.58129,0,0,1,73.12407,206.35046Z" fill="#50661a"/><path d="M55.51622,210.4303a12.88728,12.88728,0,0,1,1.63861-2.6504,12.31267,12.31267,0,0,1,2.22363-2.22192,8.17573,8.17573,0,0,1,2.82221-1.44873,5.437,5.437,0,0,1,3.12463.10107,7.11878,7.11878,0,0,0-2.97467.37867,9.89066,9.89066,0,0,0-2.58087,1.48047,17.8964,17.8964,0,0,0-2.23615,2.03808C56.8397,208.85046,56.15764,209.61609,55.51622,210.4303Z" fill="#50661a"/><path d="M63.55461,193.8778a3.96888,3.96888,0,0,1,2.64673-1.55517,6.21531,6.21531,0,0,1,1.58471-.04224,8.87157,8.87157,0,0,1,1.5525.31934l.18853.053-.077.19433c-1.00147,2.52954-1.85224,5.12793-2.69251,7.72046-.8222,2.60059-1.56286,5.22608-2.28808,7.85572q-1.04582,3.9558-1.95789,7.94824c-.61163,2.66089-1.14966,5.33813-1.70026,8.01831.33643-2.71387.74067-5.42285,1.27057-8.1084.48194-2.6958,1.13617-5.35645,1.8-8.01294.66968-2.656,1.465-5.279,2.32123-7.88062.85095-2.60473,1.80444-5.17211,2.91162-7.687l.11139.24707-.73157-.218c-.2489-.04712-.49633-.10914-.7467-.15039a5.96359,5.96359,0,0,0-1.51795-.04908A4.0061,4.0061,0,0,0,63.55461,193.8778Z" fill="#50661a"/><path d="M66.20482,217.32116a14.20178,14.20178,0,0,0-1.02686-2.70727,2.438,2.438,0,0,0-.87854-.94653,2.985,2.985,0,0,0-1.37164-.25538,2.021,2.021,0,0,1,1.565-.20874,2.33592,2.33592,0,0,1,1.24152,1.08667A4.546,4.546,0,0,1,66.20482,217.32116Z" fill="#50661a"/><path d="M37.60214,279.99749S36.0782,274.737,32.20973,277.711a7.7632,7.7632,0,0,0-2.68086,4.113c-.69767,2.51767-1.30073,7.08012.41768,13.55487,0,0,3.96024-5.47889,6.89-7.41738C40.14072,285.77524,42.27205,280.77826,37.60214,279.99749Z" fill="#c4ce6e"/><path d="M37.60216,279.99743a6.6291,6.6291,0,0,0-1.50251,1.54566,15.10956,15.10956,0,0,0-1.18487,1.80151,34.45539,34.45539,0,0,0-1.90692,3.87915c-.58435,1.32251-1.0882,2.68018-1.5885,4.04248l-1.47278,4.11255c.12573-.72.29217-1.43066.43756-2.14819.16815-.71118.37732-1.41162.56445-2.11939.40668-1.406.92145-2.77929,1.468-4.14135a27.3224,27.3224,0,0,1,2.0802-3.88746A8.81727,8.81727,0,0,1,37.60216,279.99743Z" fill="#8b9d36"/><path d="M43.18552,206.923s.12905-5.4837-4.44661-3.861a7.62961,7.62961,0,0,0-3.78718,3.0779c-1.42021,2.17875-3.36442,6.33356-3.673,13.03393,0,0,5.41527-3.97855,8.78641-4.90872C43.867,213.21609,47.39653,209.125,43.18552,206.923Z" fill="#8b9d36"/><path d="M43.18553,206.923a6.51571,6.51571,0,0,0-1.89526,1.00147,14.86223,14.86223,0,0,0-1.67,1.345,33.90345,33.90345,0,0,0-2.98089,3.09765c-.95313,1.07666-1.84033,2.21167-2.72516,3.352l-2.6355,3.45484c.33557-.645.70715-1.2688,1.06073-1.90576.37317-.62378.78259-1.22461,1.1731-1.83936a43.38745,43.38745,0,0,1,2.64068-3.4834,26.91,26.91,0,0,1,3.14905-3.05322A8.67619,8.67619,0,0,1,43.18553,206.923Z" fill="#5e7c24"/><path d="M77.72011,279.99749s1.52394-5.26049,5.39241-2.28652a7.76328,7.76328,0,0,1,2.68087,4.113c.69766,2.51767,1.30072,7.08012-.41769,13.55487,0,0-3.96024-5.47889-6.89-7.41738C75.18154,285.77524,73.0502,280.77826,77.72011,279.99749Z" fill="#8b9d36"/><path d="M77.72014,279.99743a8.8183,8.8183,0,0,1,3.10534,3.085,27.321,27.321,0,0,1,2.08014,3.88746,43.92782,43.92782,0,0,1,1.468,4.14135c.18713.70777.39636,1.40821.56445,2.11939.14539.71753.31183,1.42822.43763,2.14819l-1.47284-4.11255c-.50031-1.3623-1.00415-2.72-1.5885-4.04248a34.45545,34.45545,0,0,0-1.90693-3.87915,15.101,15.101,0,0,0-1.18487-1.80151A6.63019,6.63019,0,0,0,77.72014,279.99743Z" fill="#5e7c24"/><path d="M79.09546,224.38971s-19.26145-16.458-24.25291,79.69476" fill="none" stroke="#50661a" stroke-miterlimit="10" stroke-width="0.64428"/><path d="M60.81137,224.38971s-9.58227,63.41555-3.84058,79.69476" fill="none" stroke="#50661a" stroke-miterlimit="10" stroke-width="0.64428"/><path d="M53.31765,304.08447s-7.12112-28.57719-15.71551-24.087" fill="none" stroke="#50661a" stroke-miterlimit="10" stroke-width="0.64428"/><path d="M54.341,295.56242S60.54728,189.39024,43.18552,206.923" fill="none" stroke="#50661a" stroke-miterlimit="10" stroke-width="0.64428"/><path d="M62.0046,304.08447s7.12112-28.57719,15.71551-24.087" fill="none" stroke="#50661a" stroke-miterlimit="10" stroke-width="0.64428"/><path d="M35.14638,266.43938s13.47982-3.30669,20.82919,36.98143" fill="none" stroke="#50661a" stroke-miterlimit="10" stroke-width="0.64428"/><path d="M39.58689,241.47617s3.90541,2.60555,18.683,61.94464" fill="none" stroke="#50661a" stroke-miterlimit="10" stroke-width="0.64428"/><path d="M76.49984,254.939s-14.59619,23.10652-15.95256,49.14545" fill="none" stroke="#50661a" stroke-miterlimit="10" stroke-width="0.64428"/><path d="M37.6787,297.26419v5.34632a1.85289,1.85289,0,0,0,1.83438,1.87086H76.26584a1.85289,1.85289,0,0,0,1.83439-1.87086v-4.927a1.85337,1.85337,0,0,0-1.81386-1.87073l-36.75277-.41936A1.85239,1.85239,0,0,0,37.6787,297.26419Z" fill="#9857bd"/><polygon points="39.433 304.481 40.74 332.075 74.174 332.075 76.346 304.481 39.433 304.481" fill="#cb97e7"/><path d="M70.48286,253.36641c.05109-2.51792,5.257,2.04964,5.257,2.04964-3.10073-13.91745-13.00821-8.11372-13.00821-8.11372-9.05924-10.228-14.94112-2.93427-14.94112-2.93427,4.08915-1.399,5.42271,1.2036,5.42271,1.2036a10.888,10.888,0,0,0-7.04971,1.40534c-4.76543,3.956-3.20229,13.41644-3.20229,13.41644,1.56937-2.23819,6.48153-3.31837,8.96953-3.48738,1.56314-.10421,1.2887.66367.86786,1.24919a3.1611,3.1611,0,0,1-1.06535.91084,62.50825,62.50825,0,0,0-7.17712,4.37885c-2.33506,1.83487,3.36832,10.67723,3.36832,10.67723,1.21207-1.8023,4.638-2.99955,4.638-2.99955,3.69385-.31881-3.611,5.08811-3.611,5.08811l4.22964,6.6496,4.49785-1.67221-.87409-2.67407c.17226-2.58957,1.57591.94992,2.23288,1.50939.657.56614,6.39866-4.587,6.39866-4.587s-3.33-12.68763-.7336-11.26926c2.603,1.41185,4.08292,7.16364,4.68912,7.4564.45293.22128,2.973-4.10563,4.22341-6.31125a6.899,6.899,0,0,0,.67628-5.25078A20.51137,20.51137,0,0,0,70.48286,253.36641Zm-14.5265-.10405c-1.65877,1.37278-4.21063.61157-4.61871-.40983-.41493-1.01505.85478-3.03863,2.7559-4.3269,1.77995-1.21028,3.8278-.30579,4.23618.71577C58.74435,250.25629,57.80017,251.72692,55.95636,253.26236Z" fill="#5e7c24"/><path d="M62.73015,247.30237a31.03464,31.03464,0,0,1,.64587,4.605,21.5995,21.5995,0,0,1-.414,4.6538,35.9123,35.9123,0,0,1-1.2287,4.50025c-.47852,1.47046-.974,2.94336-1.52808,4.39331a70.37412,70.37412,0,0,1-3.94909,8.418,24.47214,24.47214,0,0,0-1.80359,4.2268,31.486,31.486,0,0,0-1.13489,4.481,25.355,25.355,0,0,1,2.49658-8.93213,80.0363,80.0363,0,0,0,3.79084-8.42578c.56756-1.43115,1.07641-2.88281,1.57287-4.3457.50018-1.459.94959-2.927,1.30127-4.417a21.5308,21.5308,0,0,0,.58283-4.5481A37.12032,37.12032,0,0,0,62.73015,247.30237Z" fill="#50661a"/><path d="M63.16667,253.48547a11.73774,11.73774,0,0,1,2.42847,2.18286,20.69259,20.69259,0,0,1,1.93133,2.64185,23.95468,23.95468,0,0,1,1.51221,2.89575,21.62923,21.62923,0,0,1,1.08331,3.07324l-1.5346-2.85156c-.52253-.93774-1.04065-1.874-1.60895-2.7793q-.8377-1.36633-1.77478-2.66748A25.07087,25.07087,0,0,0,63.16667,253.48547Z" fill="#50661a"/><path d="M58.6649,268.35681a7.11935,7.11935,0,0,1,1.57837,2.29394,6.13286,6.13286,0,0,1,.4154,1.35328,1.97062,1.97062,0,0,1-.19677,1.415,3.3022,3.3022,0,0,0-.28913-1.28613c-.16656-.4082-.33795-.81616-.51941-1.22412A21.13642,21.13642,0,0,1,58.6649,268.35681Z" fill="#50661a"/><path d="M61.17564,261.80359l-3.27,1.2373c-1.07977.42383-2.15472.854-3.20068,1.34107a28.55859,28.55859,0,0,0-3.06818,1.58032,13.95066,13.95066,0,0,0-2.75317,2.08984,9.12419,9.12419,0,0,1,2.47675-2.50976,17.80939,17.80939,0,0,1,3.0783-1.74659A25.31227,25.31227,0,0,1,61.17564,261.80359Z" fill="#50661a"/><path d="M93.58425,237.63394s7.46811-11.15591,16.8082,2.01815c0,0-7.31492-2.20688-6.24233.483a21.73688,21.73688,0,0,1,6.84,5.16733,8.22334,8.22334,0,0,1,1.65506,5.91113c-.28407,2.96476-.91553,8.821-1.47089,8.81715-.74356-.00523-4.80815-5.35061-8.07638-5.53325s5.76035,11.56823,5.76035,11.56823-3.526,8.35757-4.44256,8.09567-3.92045-3.29854-2.93989-.472l2.07564,2.39252-3.815,4.03929-7.252-4.90477s5.00143-9.41694,1.39933-7.21229c0,0-2.94485,2.997-3.37093,5.522,0,0-9.71929-6.48415-8.17222-9.61067a76.82,76.82,0,0,1,5.30666-8.2329,3.94123,3.94123,0,0,0,.74055-1.7861c.09694-.75348-.09437-1.438-1.47542-.63038-2.45521,1.43568-6.95046,5.06039-7.54646,8.22553,0,0-5.80315-9.22946-2.72638-15.82856a12.74919,12.74919,0,0,1,6.52392-5.05274s-2.51348-2.08266-6.0404,1.469C77.12308,242.07929,79.84173,231.37963,93.58425,237.63394Z" fill="#c4ce6e"/><path d="M93.58427,237.63391a80.801,80.801,0,0,1,3.23011,10.30762c.87609,3.49731,1.55413,7.04394,2.08514,10.61084a106.36048,106.36048,0,0,1,1.0014,10.76757,92.55924,92.55924,0,0,1-.16449,10.80127c-.02832-3.60034-.04644-7.19311-.33038-10.77441q-.34048-5.37342-1.14337-10.70166c-.47528-3.55762-1.15924-7.08423-1.92853-10.59058C95.56041,244.5487,94.66789,241.06579,93.58427,237.63391Z" fill="#8b9d36"/><path d="M95.44829,243.57214a17.17889,17.17889,0,0,0-1.614,2.395,26.08988,26.08988,0,0,0-1.267,2.5686c-.37629.87818-.7038,1.77784-1.00708,2.69043-.30024.91407-.56873,1.84131-.85431,2.77979a15.35128,15.35128,0,0,1,.36963-2.91358,16.61584,16.61584,0,0,1,.89984-2.81,14.613,14.613,0,0,1,1.43683-2.58472A8.8196,8.8196,0,0,1,95.44829,243.57214Z" fill="#8b9d36"/><path d="M98.55565,258.34826a7.37824,7.37824,0,0,1,4.75366,3.48169,6.0449,6.0449,0,0,1,.71741,1.87183,16.405,16.405,0,0,0-2.41346-2.99976A18.26449,18.26449,0,0,0,98.55565,258.34826Z" fill="#8b9d36"/><polygon points="413.276 308.232 414.457 320.015 393.995 330.012 425.416 330.012 425.416 308.232 413.276 308.232" fill="#f9977a"/><polygon points="379.554 308.232 380.735 320.015 360.273 330.012 391.694 330.012 391.694 308.232 379.554 308.232" fill="#f9977a"/><path d="M411.63,314.27867h13.84015a2.82168,2.82168,0,0,0,2.82168-2.82169V262.2425a128.25517,128.25517,0,0,0-3.22452-28.5784v0a18.96284,18.96284,0,0,1-.45493-5.12809c.60317-12.67271,2.85668-68.24961-3.46159-78.35883l-40.41575-2.984,28.11349,164.73852A2.82169,2.82169,0,0,0,411.63,314.27867Z" fill="#c67a56"/><path d="M367.57536,145.098s-2.12465,34.39662-2.12465,42.48363v47.71885q0,2.94769.28947,5.88474l7.07668,71.75795a2.82169,2.82169,0,0,0,2.80806,2.54476h16.30773a2.82168,2.82168,0,0,0,2.81425-3.02637l-4.40633-60.58342a59.9608,59.9608,0,0,1,1.11238-16.62673l17.79615-85.07428Z" fill="#c67a56"/><path d="M336.25606,90.80414s-.14831-3.88171-6.11758-10.02755-11.322-10.34619-8.214-5.16756l2.43371,3.90707s-6.4224-2.49053-10.11851-4.30931a5.10106,5.10106,0,0,0-5.98817.99162c-1.39261,1.50206-1.35058,3.144,2.49056,6.05765a48.944,48.944,0,0,0,11.63951,6.87842,2.90623,2.90623,0,0,1,1.4399,1.203l4.29327,3.49468Z" fill="#f9977a"/><path d="M328.11473,81.33a8.7773,8.7773,0,0,1-1.97192-.71728A10.26555,10.26555,0,0,1,324.3582,79.516a4.57492,4.57492,0,0,1,1.04205.22949,7.273,7.273,0,0,1,.9737.39624A6.86918,6.86918,0,0,1,328.11473,81.33Z" fill="#dd765e"/><path d="M319.24309,80.14074a21.73084,21.73084,0,0,1-2.389-.96582c-.78217-.35522-1.54028-.75952-2.28626-1.18676a21.7727,21.7727,0,0,1-2.15905-1.41407,11.83593,11.83593,0,0,1-1.919-1.72924c1.40967.98315,2.86652,1.83642,4.34125,2.68945C316.29857,78.39636,317.78679,79.223,319.24309,80.14074Z" fill="#dd765e"/><path d="M317.649,82.11877a20.96472,20.96472,0,0,1-2.66248-.93872,23.77747,23.77747,0,0,1-2.53961-1.24316,15.89944,15.89944,0,0,1-2.34979-1.59253,6.66087,6.66087,0,0,1-1.84558-2.146,9.64787,9.64787,0,0,0,2.08954,1.82422c.76605.51709,1.55115,1.00952,2.36487,1.458C314.31907,80.40393,315.98662,81.235,317.649,82.11877Z" fill="#dd765e"/><path d="M315.72514,83.60217a15.26029,15.26029,0,0,1-2.24-.749,20.20839,20.20839,0,0,1-2.13013-1.02344,14.03324,14.03324,0,0,1-3.7279-2.89087c.66083.43359,1.30456.86523,1.96912,1.26782.67089.3916,1.33294.793,2.01434,1.1648Z" fill="#dd765e"/><path d="M382.828,71.091s-3.23427,1.44578-5.74087,2.73091c-3.47457,1.78141-8.87023,8.04132-15.18462,23.67629l-4.19614,10.39S345.11057,93.18486,334.2135,83.85973l-10.7552,8.72715,24.89375,28.67445a17.5904,17.5904,0,0,0,6.23679,5.493c5.68374,2.90451,11.48754,1.94687,14.67367-3.9601,4.9839-9.23994,10.9091-23.30815,11.47593-27.22812Z" fill="#ffba55"/><path d="M357.74638,108.07409c-.1723,1.64307-.44958,3.18921-.51336,4.73706a11.91376,11.91376,0,0,0,.05871,2.28882,7.49058,7.49058,0,0,0,.66925,2.23975,4.02863,4.02863,0,0,1-1.42926-2.06275,6.93385,6.93385,0,0,1-.29681-2.51708,9.67514,9.67514,0,0,1,.45489-2.45A8.24993,8.24993,0,0,1,357.74638,108.07409Z" fill="#e6952a"/><path d="M406.08782,156.84392s0,17.00747,18.76594,12.55727l-1.0377-15.30965Z" fill="#a3862b"/><path d="M357.1195,331.08353v-.07188a2.97542,2.97542,0,0,1,1.63633-2.65707l21.23834-10.70366a.99181.99181,0,0,1,1.2393.28992l4.15137,5.52517a.99182.99182,0,0,0,1.30322.2547l4.87258-2.92355a.99181.99181,0,0,1,1.5021.85047v9.4359a.99181.99181,0,0,1-.99181.99181H358.11131A.99181.99181,0,0,1,357.1195,331.08353Z" fill="#5d1115"/><path d="M390.84108,331.08353v-.07188a2.97543,2.97543,0,0,1,1.63633-2.65707l21.23834-10.70366a.99181.99181,0,0,1,1.2393.28992l4.15137,5.52517a.99182.99182,0,0,0,1.30322.2547l4.87259-2.92355a.99181.99181,0,0,1,1.50209.85047v9.4359a.99181.99181,0,0,1-.99181.99181H391.83289A.99181.99181,0,0,1,390.84108,331.08353Z" fill="#5d1115"/><path d="M395.67807,30.97648a18.311,18.311,0,0,0-8.55291.73311c-1.29017.45745-6.00886,2.13046-8.30879,6.598-.87354,1.69668-1.07092,3.73775-1.46618,7.81989-.24684,2.54977-1.22886,4.37594-1.22736,7.4858a26.27281,26.27281,0,0,0,1.22736,7.42087c1.14353,3.75943.40719,5.8953.97745,6.598,2.29819,2.8322,7.22631.21416,7.3311,3.9099.0647,2.282-1.38527,3.72646.51941,5.77333,2.36208,2.5382,11.33474,1.57763,14.63176-.15273.44945-.23589,7.04324-3.78377,6.598-7.8199-.2379-2.15616-2.25594-2.37919-3.66568-5.62054a12.94262,12.94262,0,0,1-.73308-7.08678c.63564-4.71809,3.01313-5.29347,4.88748-10.99672a8.8712,8.8712,0,0,0-1.4662-8.553A18.12057,18.12057,0,0,0,395.67807,30.97648Z" fill="#f9977a"/><ellipse cx="377.3313" cy="49.72601" rx="0.95801" ry="1.19131" fill="#0a0709"/><ellipse cx="387.37219" cy="50.1291" rx="0.95801" ry="1.19131" fill="#0a0709"/><path d="M381.86256,47.524a.60463.60463,0,0,0,.357-1.09277,6.42148,6.42148,0,0,0-7.1601-.37.60469.60469,0,0,0,.67275,1.005,5.11811,5.11811,0,0,1,5.77406.3413A.60131.60131,0,0,0,381.86256,47.524Z" fill="#1e1d22"/><path d="M391.80078,48.01681a.60463.60463,0,0,0,.357-1.09277,6.42132,6.42132,0,0,0-7.1597-.37043.60469.60469,0,0,0,.67274,1.005,5.11552,5.11552,0,0,1,5.77367.34169A.60044.60044,0,0,0,391.80078,48.01681Z" fill="#1e1d22"/><circle cx="383.98179" cy="153.29355" r="1.59612" fill="#5d1115"/><path d="M381.7108,48.24231a4.74394,4.74394,0,0,1-.2406,3.01,10.96684,10.96684,0,0,1-1.473,2.67871c-.31336.41211-.77063.72046-.73938,1.12549a1.72456,1.72456,0,0,0,.64343,1.1521,3.72127,3.72127,0,0,0,2.78552.61767,3.46718,3.46718,0,0,1-2.98205-.37793,1.92125,1.92125,0,0,1-.81373-1.38794,1.17361,1.17361,0,0,1,.31006-.80688l.48365-.57642a12.02972,12.02972,0,0,0,1.503-2.54932A5.40475,5.40475,0,0,0,381.7108,48.24231Z" fill="#dd765e"/><path d="M399.40819,48.64538a2.515,2.515,0,0,1,1.96637.80713,4.43163,4.43163,0,0,1,.65167.86768,3.87921,3.87921,0,0,1,.38531,1.00024,14.38,14.38,0,0,0-1.31964-1.5813,4.41536,4.41536,0,0,0-.76605-.64013A3.63771,3.63771,0,0,0,399.40819,48.64538Z" fill="#dd765e"/><path d="M400.18645,53.6134a3.587,3.587,0,0,1,.72345-4.30981c-.15259.35839-.32258.68774-.43268,1.04052a4.94351,4.94351,0,0,0-.26636,1.05689A7.34374,7.34374,0,0,0,400.18645,53.6134Z" fill="#dd765e"/><path d="M367.13511,127.00671a71.1295,71.1295,0,0,1-.31835-10.68506,54.33962,54.33962,0,0,1,1.337-10.61035c-.07617,3.57324-.20325,7.10327-.33844,10.65064C367.66014,119.90613,367.50889,123.45007,367.13511,127.00671Z" fill="#e6952a"/><path d="M386.67543,61.03641s-3.773,3.51905-7.14693,0" fill="#0a0709"/><path d="M390.46452,49.983a8.5623,8.5623,0,0,0-2.63544-.81982,5.30531,5.30531,0,0,0-1.36029-.04517,8.94633,8.94633,0,0,0-1.379.22339,3.90709,3.90709,0,0,1,1.33661-.53052,4.50629,4.50629,0,0,1,1.45648-.04663A4.65746,4.65746,0,0,1,390.46452,49.983Z" fill="#1e1d22"/><path d="M380.59642,49.57995a8.55693,8.55693,0,0,0-2.6355-.81982,5.30567,5.30567,0,0,0-1.36029-.04517,8.95,8.95,0,0,0-1.379.22339,3.90737,3.90737,0,0,1,1.33661-.53052,4.49956,4.49956,0,0,1,1.45648-.04663A4.65782,4.65782,0,0,1,380.59642,49.57995Z" fill="#1e1d22"/><path d="M367.052,149.92492a26.83284,26.83284,0,0,0,6.335,2.99219,51.82205,51.82205,0,0,0,6.76355,1.82324,79.81635,79.81635,0,0,0,13.91827,1.5896c2.33429.17676,4.679.08619,7.02026.12085,2.34168-.04516,4.681-.2019,7.02527-.271,2.337-.18726,4.68006-.34107,7.01807-.55616,2.33557-.24292,4.66858-.52026,7.01477-.73388-2.31067.43774-4.63464.812-6.95593,1.22046-2.33325.31469-4.67762.55542-7.01917.83667-2.34912.19116-4.70624.3208-7.063.41382-2.35986-.00489-4.72161.11938-7.08215-.033a73.52677,73.52677,0,0,1-14.04382-1.84034C375.42192,154.35412,370.795,152.83606,367.052,149.92492Z" fill="#5d1115"/><path d="M382.22209,155.57556c1.17035,5.65967,2.23267,11.33765,3.27856,17.01831,1.04816,5.68042,2.00776,11.37573,3.016,17.063.9284,5.70068,1.89935,11.394,2.78784,17.10156l1.31305,8.56445c.40161,2.86109.83709,5.71631,1.20886,8.58228-.59528-2.82813-1.12677-5.667-1.6922-8.5l-1.58807-8.51807c-1.04554-5.68066-2.00861-11.37549-3.01423-17.063-.92584-5.70117-1.90033-11.394-2.78619-17.10205C383.85759,167.01452,382.98582,161.30432,382.22209,155.57556Z" fill="#5d1115"/><path d="M374.14714,148.50525a9.39835,9.39835,0,0,1,.49975,3.19214,9.29474,9.29474,0,0,1-.49975,3.19238,9.29492,9.29492,0,0,1-.4997-3.19238A9.4,9.4,0,0,1,374.14714,148.50525Z" fill="#5d1115"/><path d="M398.54185,151.10779a12.374,12.374,0,0,1,.92939,3.59765,12.23327,12.23327,0,0,1-.06305,3.71533,12.23438,12.23438,0,0,1-.92945-3.59765A12.373,12.373,0,0,1,398.54185,151.10779Z" fill="#5d1115"/><path d="M385.92167,156.16662a64.55953,64.55953,0,0,1,1.61078,6.82105c.42176,2.29272.76917,4.59765,1.02124,6.91846l.02576.23706-.16479.1101c-1.08838.72705-2.20093,1.42212-3.34809,2.07129.94007-.92383,1.91468-1.802,2.91339-2.648l-.13885.34693c-.50647-2.27881-.91766-4.57325-1.25446-6.87989A64.57379,64.57379,0,0,1,385.92167,156.16662Z" fill="#5d1115"/><path d="M422.1472,193.00671a25.31121,25.31121,0,0,1-.62964,5.02393,27.6261,27.6261,0,0,1-1.52539,4.854,19.95221,19.95221,0,0,1-2.54211,4.439,11.76639,11.76639,0,0,1-3.87061,3.29028,17.51087,17.51087,0,0,0,3.23462-3.74243,28.57248,28.57248,0,0,0,2.25757-4.37574,49.065,49.065,0,0,0,1.69482-4.66528C421.25279,196.24157,421.73363,194.641,422.1472,193.00671Z" fill="#5d1115"/><path d="M422.1472,204.61584a15.92291,15.92291,0,0,1-1.23987,3.43726,21.72532,21.72532,0,0,1-1.87024,3.15161,14.96779,14.96779,0,0,1-5.45764,4.8269c.85938-.874,1.695-1.71,2.46265-2.61645.75622-.91211,1.50744-1.82251,2.18432-2.79517C419.61741,208.70056,420.86229,206.68371,422.1472,204.61584Z" fill="#5d1115"/><path d="M385.63011,250.90759a25.32911,25.32911,0,0,1-.62964,5.02417,27.62737,27.62737,0,0,1-1.52539,4.85376,19.95215,19.95215,0,0,1-2.54217,4.439,11.7655,11.7655,0,0,1-3.87055,3.29029,17.50239,17.50239,0,0,0,3.23462-3.74243,28.556,28.556,0,0,0,2.25745-4.37574,49.02493,49.02493,0,0,0,1.69488-4.66528C384.7357,254.1427,385.21647,252.54187,385.63011,250.90759Z" fill="#5d1115"/><path d="M385.63011,262.51672a15.93638,15.93638,0,0,1-1.23987,3.4375,21.74207,21.74207,0,0,1-1.8703,3.15137,14.96544,14.96544,0,0,1-5.45758,4.8269c.85931-.874,1.69489-1.70971,2.46259-2.61645.75622-.91211,1.50738-1.82251,2.18432-2.79492C383.10026,266.60168,384.34514,264.58459,385.63011,262.51672Z" fill="#5d1115"/><path d="M402.741,169.965a27.1369,27.1369,0,0,0-.05487,5.90967,8.43053,8.43053,0,0,0,2.09149,5.1189c1.29047,1.31079,3.28729,1.60718,5.19037,1.49145a27.4828,27.4828,0,0,0,5.77966-1.20581,17.57814,17.57814,0,0,1-5.70031,1.98218,9.2425,9.2425,0,0,1-3.11927-.06445,5.79826,5.79826,0,0,1-2.84582-1.48535,8.48972,8.48972,0,0,1-2.171-5.77491A17.52114,17.52114,0,0,1,402.741,169.965Z" fill="#5d1115"/><path d="M387.18618,71.85151s2.27316,11.5057,18.40168-5.35594L421.14977,76.124a22.36513,22.36513,0,0,1,8.15608,9.18417,112.68008,112.68008,0,0,1,10.60351,41.462s2.19935,14.48253-19.30536,43.04171c0,0-11.24109,2.167-13.92918-9.80717l6.90466-9.53049s-36.47363,3.4212-46.00412-5.37618c0,0-4.98906-62.35075,16.12853-74.77772Z" fill="#ffba55"/><path d="M414.25035,98.17859q.64324,4.07262,1.19385,8.15551c.35363,2.72339.74145,5.44287,1.06714,8.16944l.97216,8.18017c.3385,2.7251.58777,5.46021.88611,8.18994l.00488.04493-.00317.03784a73.53214,73.53214,0,0,1-1.54089,9.98584,39.55927,39.55927,0,0,1-3.251,9.532,49.553,49.553,0,0,0,2.62744-9.658c.29749-1.64282.53382-3.29614.73389-4.95288.21789-1.6521.402-3.3186.51965-4.9707l.00171.08252c-.31262-2.728-.67419-5.45069-.94665-8.18311l-.86048-8.19263c-.28528-2.7312-.50854-5.46923-.76574-8.20336Q414.52708,102.29236,414.25035,98.17859Z" fill="#e6952a"/><path d="M410.4066,100.86682a15.93887,15.93887,0,0,1,2.85864,3.11035,15.76471,15.76471,0,0,1,2.04785,3.69507,15.756,15.756,0,0,1-2.85864-3.1106A15.94162,15.94162,0,0,1,410.4066,100.86682Z" fill="#e6952a"/><path d="M417.91588,130.92444c1.11462-.01148,2.10327.103,3.09436.14306.49279.02759.97693.02271,1.4718.01782.49231-.02832.98-.08227,1.54321-.16088a3.01835,3.01835,0,0,1-1.39673.92749,4.99148,4.99148,0,0,1-1.66467.21386,5.82361,5.82361,0,0,1-1.61645-.32666A4.2323,4.2323,0,0,1,417.91588,130.92444Z" fill="#e6952a"/><path d="M390.64512,75.48913c-.99554,3.0022-1.95074,6.01441-2.79364,9.05957q-1.3308,4.54688-2.45379,9.1482c-1.50842,6.12915-2.827,12.303-3.81439,18.53222a170.27337,170.27337,0,0,0-1.98316,18.79761c-.05353,3.14941-.20111,6.30518.00586,9.45435-.01,3.16406.47034,6.28637.72815,9.44384a97.13137,97.13137,0,0,1-1.50281-18.92187,153.51669,153.51669,0,0,1,1.76575-18.93237c1.07513-6.24854,2.38586-12.4563,4.05969-18.56714A162.054,162.054,0,0,1,390.64512,75.48913Z" fill="#e6952a"/><path d="M383.7039,70.32043c-.37207,1.6687-.70953,3.34375-.92785,5.03052a15.57666,15.57666,0,0,0-.05744,4.98511c.1781.79858.6405,1.35473,1.33807,1.15722a5.71234,5.71234,0,0,0,2.04511-1.12768,30.19754,30.19754,0,0,0,3.587-3.53418l.7348-.82178.08148,1.11865a8.33616,8.33616,0,0,0,.87622,3.2981,3.157,3.157,0,0,0,2.43915,1.81738,6.2027,6.2027,0,0,0,3.24744-.79516,17.476,17.476,0,0,0,2.99322-1.93457A81.14228,81.14228,0,0,0,410.4066,69.28967c-1.45105,1.96143-2.94434,3.89893-4.56909,5.73022a47.62972,47.62972,0,0,1-5.25177,5.16456,18.3222,18.3222,0,0,1-3.11048,2.07177,7.06739,7.06739,0,0,1-3.75317.94068,4.05247,4.05247,0,0,1-3.21344-2.3064,9.24428,9.24428,0,0,1-.93829-3.73315l.81616.29687a31.00891,31.00891,0,0,1-3.76117,3.59448,5.77188,5.77188,0,0,1-2.452,1.218,1.61792,1.61792,0,0,1-1.48986-.46142,2.56406,2.56406,0,0,1-.617-1.31788,9.61735,9.61735,0,0,1-.0744-2.64379A21.24659,21.24659,0,0,1,382.373,75.284,41.97876,41.97876,0,0,1,383.7039,70.32043Z" fill="#e6952a"/><circle cx="386.60595" cy="96.05697" r="1.0213" fill="#5d1115"/><circle cx="389.66986" cy="84.19933" r="1.0213" fill="#5d1115"/><circle cx="384.0604" cy="109.95939" r="1.0213" fill="#5d1115"/><circle cx="381.96917" cy="124.62983" r="1.0213" fill="#5d1115"/><circle cx="381.32809" cy="140.69422" r="1.0213" fill="#5d1115"/><path d="M385.03391,71.36288s6.7636.12525,10.63048-5.251c1.84378-2.56307,1.8484-7.74843,1.66784-10.76481a9.3303,9.3303,0,0,1,.62345-3.96725c.68366-1.74313,1.52245-4.11822,3.22749-4.27631,1.25629-.11649,1.761-.44817,2.21336.76431.74752,2.00582-.55126,4.21852-1.45543,5.75972-1.29462,2.20523-2.3939,2.68667-2.41389,4.2124-.01539,1.16391,1.84908,3.1004,2.62106,3.18568,1.30647.14425,1.89693-3.81774,5.39976-10.42613,2.21217-4.17291,3.22927-4.95571,3.48541-7.56069.09088-.92494.46719-4.75417-1.83742-6.98126-1.069-1.033-1.67687-.71828-6.325-2.68654a38.33805,38.33805,0,0,1-3.77988-1.74255c-3.70238-2.02244-3.62-3.06273-5.78649-3.67861-1.95719-.55626-2.07321.27936-5.81044.05806-3.60319-.21325-3.92278-1.01547-5.58849-.54043-2.89206.82463-4.281,3.91355-4.654,4.74354a9.95342,9.95342,0,0,0-1.11593,4.65161,8.97929,8.97929,0,0,0,1.75736,4.52686c.46977.47854,2.37488-2.27986,3.413-3.31757,1.018-1.01667,2.17434-.60038,3.75011-.5024,1.53643.09554,1.45238,1.05245,3.72494,1.89259.8097.2993,4.05435-1.15427,5.10161.64142,1.11583,1.91329,1.98342,2.14511,1.45953,3.92543-.32733,1.11225-.12477,2.47875.2803,5.21189.2905,1.96142-1.29646,8.81244-1.29646,8.81244a2.39667,2.39667,0,0,1-3.22641,1.0875,42.98612,42.98612,0,0,0-5.31926-2.2993,7.77224,7.77224,0,0,0-6.60816.75547c-.679.415-1.37664.87983-1.929,1.29909a2.80642,2.80642,0,0,0-1.10365,2.40008C376.34037,64.2365,377.56071,71.42857,385.03391,71.36288Zm-6.42673-10.21561c.2784-1.4006,2.36759-1.94526,3.56036-2.25485a4.90253,4.90253,0,0,1,2.9331-.10386c.22926.07087,2.30574.7842,2.49359,2.45721.18849,1.67325-1.67753,2.8398-1.96979,3.01511a4.77188,4.77188,0,0,1-4.65145.14766C379.9016,63.85488,378.33517,62.49341,378.60718,61.14727Z" fill="#1e1d22"/><path d="M81.20657,83.62847H61.03918a1,1,0,0,1-1-1v-25.476a1,1,0,0,1,1-1H88.99645a1,1,0,0,1,1,1V75.68889Z" fill="#ffe3cb"/><polygon points="89.996 75.72 81.207 75.72 81.207 83.628 89.996 75.72" fill="#feca9c"/><rect x="69.02657" y="53.57977" width="10.98" height="5.4" rx="1" fill="#feca9c"/><rect x="67.96665" y="65.49955" width="14.04004" height="1" fill="#feca9c"/><rect x="67.96665" y="71.49955" width="14.04004" height="1" fill="#feca9c"/><path d="M27.68805,240.25592c2.41169,1.874,6.66064,6.32428,6.77527,9.662,0,0,7.80886-8.49082,5.58875-15.75216a13.56165,13.56165,0,0,0-6.20117-6.24612s3.06211-1.7178,6.27749,2.49855c0,0-1.14822-11.39937-17.03351-7.26134,0,0-6.20117-12.64855-18.48825-.70275,0,0,8.268-1.054,6.66033,1.52258a24.03343,24.03343,0,0,0-8.249,4.16424A8.26516,8.26516,0,0,0,.24273,233.9121c-.19126,3.08407-.4847,9.18707.115,9.27173.80369.11708,6.08622-4.68463,9.64612-4.33325s-8.15338,10.89168-8.15338,10.89168,2.41169,9.13512,3.44527,9.01805c1.03327-.11708,4.78474-2.73269,3.25338,0l-2.641,2.10809,3.445,4.76279,8.65085-3.8259s-3.82779-10.46231-.30621-7.61254c0,0,2.67927,3.55267,2.71759,6.2072,0,0,11.579-5.036,10.43081-8.491a77.6067,77.6067,0,0,0-4.37636-9.33671,3.948,3.948,0,0,1-.47848-1.65267C25.953,240.04115,26.18254,239.08472,27.68805,240.25592Zm-1.42265-12.128c1.08466-.74834,3.75147-.26687,4.753,2.17306,1.07189,2.60911,1.027,5.51749-.05732,6.26567-1.08467.74834-4.16609-.22763-4.938-2.75223C25.16827,231.00372,25.181,228.87609,26.2654,228.12791Z" fill="#8b9d36"/><path d="M23.09477,223.15686a42.88142,42.88142,0,0,0-3.41748,4.44336,26.03369,26.03369,0,0,0-2.42194,5.01465A55.89512,55.89512,0,0,0,15.6602,237.973c-.462,1.81592-.90332,3.62988-1.27124,5.46191-.38983,1.82666-.73047,3.66553-1.0094,5.51172-.28723,1.84644-.45251,3.70386-.67938,5.571a31.1417,31.1417,0,0,1-3.30139,10.74048,37.4464,37.4464,0,0,0,1.83374-5.29834,29.87139,29.87139,0,0,0,.97485-5.49463A87.06964,87.06964,0,0,1,13.759,243.30334c.3894-1.84009.85351-3.66528,1.33471-5.47729a44.86643,44.86643,0,0,1,1.701-5.38794,26.1121,26.1121,0,0,1,2.62146-5.01245A37.16811,37.16811,0,0,1,23.09477,223.15686Z" fill="#5e7c24"/><path d="M18.58543,229.10827a26.67261,26.67261,0,0,0-3.717,1.07032c-1.20807.43921-2.40216.91528-3.561,1.47241-2.35016,1.04931-4.57929,2.33984-6.854,3.60791.49665-.4209,1.01508-.8147,1.52924-1.217.53827-.36548,1.0683-.74707,1.61932-1.09644A33.60541,33.60541,0,0,1,11.0388,231.066a28.10407,28.10407,0,0,1,3.68042-1.35767A14.54375,14.54375,0,0,1,18.58543,229.10827Z" fill="#5e7c24"/><path d="M13.35179,247.22131c-.88965.6897-1.8158,1.2544-2.72022,1.84351q-.67986.43616-1.32794.90112a3.64771,3.64771,0,0,0-1.099,1.14282,2.39991,2.39991,0,0,1,.76337-1.51709,7.73359,7.73359,0,0,1,1.31384-1.06738A9.46734,9.46734,0,0,1,13.35179,247.22131Z" fill="#5e7c24"/><path d="M15.12541,238.879a30.55319,30.55319,0,0,1,2.92627,3.15625A37.04484,37.04484,0,0,1,20.57,245.538a24.76134,24.76134,0,0,1,1.96582,3.85474,11.73438,11.73438,0,0,1,.90344,4.2146,16.61207,16.61207,0,0,0-1.359-4.01953,30.62232,30.62232,0,0,0-2.05658-3.70972c-.722-1.22095-1.54456-2.3811-2.36469-3.54419C16.8361,241.172,15.98637,240.02624,15.12541,238.879Z" fill="#5e7c24"/><path d="M4.53,275.469l3.21535,2.96695s3.13879-3.3183,3.48329-1.015c0,0-.49761,2.30329-1.11006,2.49849,0,0,7.69387,6.18766,9.24413,1.09309a49.14282,49.14282,0,0,1,2.3541-6.67565s1.7225.93693.22966,8.31528c0,0,5.95438-1.74977,8.16551-4.95984a2.29629,2.29629,0,0,0,.389-1.28081c.0213-1.83519.26318-7.00034,2.35476-5.0611,0,0,1.20576.58558.28709,4.509,0,0,4.84585-5.46307,2.54407-8.82079a3.35735,3.35735,0,0,0-4.11677-1.08625c-1.34571.58416-3.84261,1.66-8.47527,3.64131A92.45638,92.45638,0,0,1,4.53,275.469Z" fill="#8b9d36"/><path d="M15.12541,279.99743a18.36024,18.36024,0,0,1,1.58283-4.86572,11.82163,11.82163,0,0,1,1.35949-2.20288,5.259,5.259,0,0,1,.9339-.92651,1.9584,1.9584,0,0,1,1.22321-.43726,3.51806,3.51806,0,0,0-1.74933,1.658,22.32535,22.32535,0,0,0-1.18878,2.19141C16.54753,276.91736,15.88914,278.46545,15.12541,279.99743Z" fill="#5e7c24"/><path d="M25.58287,277.577a15.27515,15.27515,0,0,1,.40765-4.49878,11.53966,11.53966,0,0,1,.75171-2.15844,3.388,3.388,0,0,1,1.52008-1.697,4.61128,4.61128,0,0,0-1.056,1.89038c-.22442.69433-.41723,1.40088-.59,2.1167C26.26774,274.66345,25.97844,276.11584,25.58287,277.577Z" fill="#5e7c24"/><path d="M79.09546,224.38971s-7.73215,1.10951-.84212,6.575c0,0,1.76079,1.48348,7.50248,3.20119C85.75582,234.16585,89.354,218.51745,79.09546,224.38971Z" fill="#5e7c24"/><path d="M85.75584,234.16589c-.14319-.51245-.237-1.02588-.36584-1.53027-.161-.49634-.27728-1.00147-.45343-1.48535a14.39471,14.39471,0,0,0-1.29285-2.773,10.90422,10.90422,0,0,0-1.94946-2.32642,9.24425,9.24425,0,0,0-2.59882-1.66113,6.54,6.54,0,0,1,2.9148,1.27,8.85021,8.85021,0,0,1,2.18023,2.37768,10.77709,10.77709,0,0,1,1.22638,2.97071c.14032.51538.19312,1.05.282,1.57129C85.7249,233.11145,85.75712,233.63952,85.75584,234.16589Z" fill="#50661a"/><path d="M69.2825,192.7739s8.5723-5.46149,11.13986,6.66537c0,0-4.44872-3.82925-4.50765-1.61407a16.97938,16.97938,0,0,1,3.227,5.74969,6.29574,6.29574,0,0,1-.62009,4.64846c-1.08966,1.98312-3.29121,5.87839-3.67815,5.702-.51807-.23612-1.75194-5.24253-3.981-6.39195s.54852,9.88543.54852,9.88543-4.97627,4.73833-5.53806,4.26875-1.74836-3.5309-1.91269-1.249l.73144,2.321-3.88026,1.63013-3.59384-5.695s6.32577-5.0174,3.14577-4.60285c0,0-2.95883,1.17374-4.01556,2.80515,0,0-4.84338-7.57015-2.82246-9.27145a57.35758,57.35758,0,0,1,6.19441-4.1011,2.90276,2.90276,0,0,0,1.054-1.02849c.285-.49105.34055-1.01439-.85243-.88343-2.14735.23573-6.37838,1.36345-7.74625,3.38909,0,0-1.28141-8.26436,2.85233-11.91423a9.54562,9.54562,0,0,1,6.078-1.49146s-1.13056-2.2413-4.66291-.86186C56.44239,190.73407,61.55838,184.10654,69.2825,192.7739Z" fill="#5e7c24"/><path d="M73.12407,206.35046c-.69959-1.70532-1.356-3.395-2.15393-5.00659a14.55339,14.55339,0,0,0-1.387-2.27515,3.5314,3.5314,0,0,0-2.13543-1.47534,3.11685,3.11685,0,0,1,2.51208,1.14234,9.91445,9.91445,0,0,1,1.58606,2.31958A16.58129,16.58129,0,0,1,73.12407,206.35046Z" fill="#50661a"/><path d="M55.51622,210.4303a12.88728,12.88728,0,0,1,1.63861-2.6504,12.31267,12.31267,0,0,1,2.22363-2.22192,8.17573,8.17573,0,0,1,2.82221-1.44873,5.437,5.437,0,0,1,3.12463.10107,7.11878,7.11878,0,0,0-2.97467.37867,9.89066,9.89066,0,0,0-2.58087,1.48047,17.8964,17.8964,0,0,0-2.23615,2.03808C56.8397,208.85046,56.15764,209.61609,55.51622,210.4303Z" fill="#50661a"/><path d="M63.55461,193.8778a3.96888,3.96888,0,0,1,2.64673-1.55517,6.21531,6.21531,0,0,1,1.58471-.04224,8.87157,8.87157,0,0,1,1.5525.31934l.18853.053-.077.19433c-1.00147,2.52954-1.85224,5.12793-2.69251,7.72046-.8222,2.60059-1.56286,5.22608-2.28808,7.85572q-1.04582,3.9558-1.95789,7.94824c-.61163,2.66089-1.14966,5.33813-1.70026,8.01831.33643-2.71387.74067-5.42285,1.27057-8.1084.48194-2.6958,1.13617-5.35645,1.8-8.01294.66968-2.656,1.465-5.279,2.32123-7.88062.85095-2.60473,1.80444-5.17211,2.91162-7.687l.11139.24707-.73157-.218c-.2489-.04712-.49633-.10914-.7467-.15039a5.96359,5.96359,0,0,0-1.51795-.04908A4.0061,4.0061,0,0,0,63.55461,193.8778Z" fill="#50661a"/><path d="M66.20482,217.32116a14.20178,14.20178,0,0,0-1.02686-2.70727,2.438,2.438,0,0,0-.87854-.94653,2.985,2.985,0,0,0-1.37164-.25538,2.021,2.021,0,0,1,1.565-.20874,2.33592,2.33592,0,0,1,1.24152,1.08667A4.546,4.546,0,0,1,66.20482,217.32116Z" fill="#50661a"/><path d="M37.60214,279.99749S36.0782,274.737,32.20973,277.711a7.7632,7.7632,0,0,0-2.68086,4.113c-.69767,2.51767-1.30073,7.08012.41768,13.55487,0,0,3.96024-5.47889,6.89-7.41738C40.14072,285.77524,42.27205,280.77826,37.60214,279.99749Z" fill="#c4ce6e"/><path d="M37.60216,279.99743a6.6291,6.6291,0,0,0-1.50251,1.54566,15.10956,15.10956,0,0,0-1.18487,1.80151,34.45539,34.45539,0,0,0-1.90692,3.87915c-.58435,1.32251-1.0882,2.68018-1.5885,4.04248l-1.47278,4.11255c.12573-.72.29217-1.43066.43756-2.14819.16815-.71118.37732-1.41162.56445-2.11939.40668-1.406.92145-2.77929,1.468-4.14135a27.3224,27.3224,0,0,1,2.0802-3.88746A8.81727,8.81727,0,0,1,37.60216,279.99743Z" fill="#8b9d36"/><path d="M43.18552,206.923s.12905-5.4837-4.44661-3.861a7.62961,7.62961,0,0,0-3.78718,3.0779c-1.42021,2.17875-3.36442,6.33356-3.673,13.03393,0,0,5.41527-3.97855,8.78641-4.90872C43.867,213.21609,47.39653,209.125,43.18552,206.923Z" fill="#8b9d36"/><path d="M43.18553,206.923a6.51571,6.51571,0,0,0-1.89526,1.00147,14.86223,14.86223,0,0,0-1.67,1.345,33.90345,33.90345,0,0,0-2.98089,3.09765c-.95313,1.07666-1.84033,2.21167-2.72516,3.352l-2.6355,3.45484c.33557-.645.70715-1.2688,1.06073-1.90576.37317-.62378.78259-1.22461,1.1731-1.83936a43.38745,43.38745,0,0,1,2.64068-3.4834,26.91,26.91,0,0,1,3.14905-3.05322A8.67619,8.67619,0,0,1,43.18553,206.923Z" fill="#5e7c24"/><path d="M77.72011,279.99749s1.52394-5.26049,5.39241-2.28652a7.76328,7.76328,0,0,1,2.68087,4.113c.69766,2.51767,1.30072,7.08012-.41769,13.55487,0,0-3.96024-5.47889-6.89-7.41738C75.18154,285.77524,73.0502,280.77826,77.72011,279.99749Z" fill="#8b9d36"/><path d="M77.72014,279.99743a8.8183,8.8183,0,0,1,3.10534,3.085,27.321,27.321,0,0,1,2.08014,3.88746,43.92782,43.92782,0,0,1,1.468,4.14135c.18713.70777.39636,1.40821.56445,2.11939.14539.71753.31183,1.42822.43763,2.14819l-1.47284-4.11255c-.50031-1.3623-1.00415-2.72-1.5885-4.04248a34.45545,34.45545,0,0,0-1.90693-3.87915,15.101,15.101,0,0,0-1.18487-1.80151A6.63019,6.63019,0,0,0,77.72014,279.99743Z" fill="#5e7c24"/><path d="M79.09546,224.38971s-19.26145-16.458-24.25291,79.69476" fill="none" stroke="#50661a" stroke-miterlimit="10" stroke-width="0.64428"/><path d="M60.81137,224.38971s-9.58227,63.41555-3.84058,79.69476" fill="none" stroke="#50661a" stroke-miterlimit="10" stroke-width="0.64428"/><path d="M53.31765,304.08447s-7.12112-28.57719-15.71551-24.087" fill="none" stroke="#50661a" stroke-miterlimit="10" stroke-width="0.64428"/><path d="M54.341,295.56242S60.54728,189.39024,43.18552,206.923" fill="none" stroke="#50661a" stroke-miterlimit="10" stroke-width="0.64428"/><path d="M62.0046,304.08447s7.12112-28.57719,15.71551-24.087" fill="none" stroke="#50661a" stroke-miterlimit="10" stroke-width="0.64428"/><path d="M35.14638,266.43938s13.47982-3.30669,20.82919,36.98143" fill="none" stroke="#50661a" stroke-miterlimit="10" stroke-width="0.64428"/><path d="M39.58689,241.47617s3.90541,2.60555,18.683,61.94464" fill="none" stroke="#50661a" stroke-miterlimit="10" stroke-width="0.64428"/><path d="M76.49984,254.939s-14.59619,23.10652-15.95256,49.14545" fill="none" stroke="#50661a" stroke-miterlimit="10" stroke-width="0.64428"/><path d="M37.6787,297.26419v5.34632a1.85289,1.85289,0,0,0,1.83438,1.87086H76.26584a1.85289,1.85289,0,0,0,1.83439-1.87086v-4.927a1.85337,1.85337,0,0,0-1.81386-1.87073l-36.75277-.41936A1.85239,1.85239,0,0,0,37.6787,297.26419Z" fill="#d6694b"/><polygon points="39.433 304.481 40.74 332.075 74.174 332.075 76.346 304.481 39.433 304.481" fill="#e19974"/><path d="M70.48286,253.36641c.05109-2.51792,5.257,2.04964,5.257,2.04964-3.10073-13.91745-13.00821-8.11372-13.00821-8.11372-9.05924-10.228-14.94112-2.93427-14.94112-2.93427,4.08915-1.399,5.42271,1.2036,5.42271,1.2036a10.888,10.888,0,0,0-7.04971,1.40534c-4.76543,3.956-3.20229,13.41644-3.20229,13.41644,1.56937-2.23819,6.48153-3.31837,8.96953-3.48738,1.56314-.10421,1.2887.66367.86786,1.24919a3.1611,3.1611,0,0,1-1.06535.91084,62.50825,62.50825,0,0,0-7.17712,4.37885c-2.33506,1.83487,3.36832,10.67723,3.36832,10.67723,1.21207-1.8023,4.638-2.99955,4.638-2.99955,3.69385-.31881-3.611,5.08811-3.611,5.08811l4.22964,6.6496,4.49785-1.67221-.87409-2.67407c.17226-2.58957,1.57591.94992,2.23288,1.50939.657.56614,6.39866-4.587,6.39866-4.587s-3.33-12.68763-.7336-11.26926c2.603,1.41185,4.08292,7.16364,4.68912,7.4564.45293.22128,2.973-4.10563,4.22341-6.31125a6.899,6.899,0,0,0,.67628-5.25078A20.51137,20.51137,0,0,0,70.48286,253.36641Zm-14.5265-.10405c-1.65877,1.37278-4.21063.61157-4.61871-.40983-.41493-1.01505.85478-3.03863,2.7559-4.3269,1.77995-1.21028,3.8278-.30579,4.23618.71577C58.74435,250.25629,57.80017,251.72692,55.95636,253.26236Z" fill="#5e7c24"/><path d="M62.73015,247.30237a31.03464,31.03464,0,0,1,.64587,4.605,21.5995,21.5995,0,0,1-.414,4.6538,35.9123,35.9123,0,0,1-1.2287,4.50025c-.47852,1.47046-.974,2.94336-1.52808,4.39331a70.37412,70.37412,0,0,1-3.94909,8.418,24.47214,24.47214,0,0,0-1.80359,4.2268,31.486,31.486,0,0,0-1.13489,4.481,25.355,25.355,0,0,1,2.49658-8.93213,80.0363,80.0363,0,0,0,3.79084-8.42578c.56756-1.43115,1.07641-2.88281,1.57287-4.3457.50018-1.459.94959-2.927,1.30127-4.417a21.5308,21.5308,0,0,0,.58283-4.5481A37.12032,37.12032,0,0,0,62.73015,247.30237Z" fill="#50661a"/><path d="M63.16667,253.48547a11.73774,11.73774,0,0,1,2.42847,2.18286,20.69259,20.69259,0,0,1,1.93133,2.64185,23.95468,23.95468,0,0,1,1.51221,2.89575,21.62923,21.62923,0,0,1,1.08331,3.07324l-1.5346-2.85156c-.52253-.93774-1.04065-1.874-1.60895-2.7793q-.8377-1.36633-1.77478-2.66748A25.07087,25.07087,0,0,0,63.16667,253.48547Z" fill="#50661a"/><path d="M58.6649,268.35681a7.11935,7.11935,0,0,1,1.57837,2.29394,6.13286,6.13286,0,0,1,.4154,1.35328,1.97062,1.97062,0,0,1-.19677,1.415,3.3022,3.3022,0,0,0-.28913-1.28613c-.16656-.4082-.33795-.81616-.51941-1.22412A21.13642,21.13642,0,0,1,58.6649,268.35681Z" fill="#50661a"/><path d="M61.17564,261.80359l-3.27,1.2373c-1.07977.42383-2.15472.854-3.20068,1.34107a28.55859,28.55859,0,0,0-3.06818,1.58032,13.95066,13.95066,0,0,0-2.75317,2.08984,9.12419,9.12419,0,0,1,2.47675-2.50976,17.80939,17.80939,0,0,1,3.0783-1.74659A25.31227,25.31227,0,0,1,61.17564,261.80359Z" fill="#50661a"/><path d="M93.58425,237.63394s7.46811-11.15591,16.8082,2.01815c0,0-7.31492-2.20688-6.24233.483a21.73688,21.73688,0,0,1,6.84,5.16733,8.22334,8.22334,0,0,1,1.65506,5.91113c-.28407,2.96476-.91553,8.821-1.47089,8.81715-.74356-.00523-4.80815-5.35061-8.07638-5.53325s5.76035,11.56823,5.76035,11.56823-3.526,8.35757-4.44256,8.09567-3.92045-3.29854-2.93989-.472l2.07564,2.39252-3.815,4.03929-7.252-4.90477s5.00143-9.41694,1.39933-7.21229c0,0-2.94485,2.997-3.37093,5.522,0,0-9.71929-6.48415-8.17222-9.61067a76.82,76.82,0,0,1,5.30666-8.2329,3.94123,3.94123,0,0,0,.74055-1.7861c.09694-.75348-.09437-1.438-1.47542-.63038-2.45521,1.43568-6.95046,5.06039-7.54646,8.22553,0,0-5.80315-9.22946-2.72638-15.82856a12.74919,12.74919,0,0,1,6.52392-5.05274s-2.51348-2.08266-6.0404,1.469C77.12308,242.07929,79.84173,231.37963,93.58425,237.63394Z" fill="#c4ce6e"/><path d="M93.58427,237.63391a80.801,80.801,0,0,1,3.23011,10.30762c.87609,3.49731,1.55413,7.04394,2.08514,10.61084a106.36048,106.36048,0,0,1,1.0014,10.76757,92.55924,92.55924,0,0,1-.16449,10.80127c-.02832-3.60034-.04644-7.19311-.33038-10.77441q-.34048-5.37342-1.14337-10.70166c-.47528-3.55762-1.15924-7.08423-1.92853-10.59058C95.56041,244.5487,94.66789,241.06579,93.58427,237.63391Z" fill="#8b9d36"/><path d="M95.44829,243.57214a17.17889,17.17889,0,0,0-1.614,2.395,26.08988,26.08988,0,0,0-1.267,2.5686c-.37629.87818-.7038,1.77784-1.00708,2.69043-.30024.91407-.56873,1.84131-.85431,2.77979a15.35128,15.35128,0,0,1,.36963-2.91358,16.61584,16.61584,0,0,1,.89984-2.81,14.613,14.613,0,0,1,1.43683-2.58472A8.8196,8.8196,0,0,1,95.44829,243.57214Z" fill="#8b9d36"/><path d="M98.55565,258.34826a7.37824,7.37824,0,0,1,4.75366,3.48169,6.0449,6.0449,0,0,1,.71741,1.87183,16.405,16.405,0,0,0-2.41346-2.99976A18.26449,18.26449,0,0,0,98.55565,258.34826Z" fill="#8b9d36"/><path d="M481.98311,333.07518h-452a1,1,0,0,1,0-2h452a1,1,0,0,1,0,2Z" fill="#935b50"/></g></g></svg>