<svg xmlns="http://www.w3.org/2000/svg" viewBox="0 0 488.83521 334.44562"><title>Asset 10</title><g id="Layer_2" data-name="Layer 2"><g id="Layer_1-2" data-name="Layer 1"><path d="M322.369,332.31534c16.25-5.08,30.83-10.27,48.37-20.12,18.09-10.16,98.45-58.51,108.9-142.19a159.61541,159.61541,0,0,0-6.66-68.16c-3.23-9.47-9.93-28.49-26.84-47.3-20.7-23.04-44.32-31.97-58.17-37.02-29.14-10.63-53.58-10.07-65.22-9.69-12.56.41-34.73,1.33-59.93,12.34-16.44,7.18-26.66,15.37-41.72,27.61-23.86,19.41-27,27.49-68.74,67.57-11.46,11-20.88,19.67-35.26,28.21-9.97,5.92-18.03,9.23-32.9,15.27-36.55,14.85-46.95658,17.85676-58.91658,26.21676C2.02239,201.3221,3.529,219.06534,2.529,222.88534a75.12694,75.12694,0,0,0-1.77,29.97c3.05,20.07,13.86,33.19,20.57,41.13a113.09822,113.09822,0,0,0,32.9,26.44,210.24676,210.24676,0,0,0,26.96,11.89Z" fill="#efedef"/><path d="M261.30613,13.5166C287.55254,2.05634,310.64177,1.08949,323.73288.664c12.11573-.39376,37.57416-.975,67.935,10.09845,14.42588,5.26152,39.0266,14.56329,60.59069,38.5577,17.60788,19.59231,24.58686,39.40669,27.94924,49.26816a166.31552,166.31552,0,0,1,6.93628,70.99515c-10.879,87.16758-94.5869,137.52535-113.429,148.1105" fill="none" stroke="#6a8d99" stroke-miterlimit="10"/><polygon points="59.38 332.415 24.95 332.415 20.42 279.526 63.91 279.526 59.38 332.415" fill="#ffe3cb"/><path d="M24.95,332.41507c2.673-8.87861,5.45032-17.72331,8.24341-26.56286,1.37744-4.426,2.82257-8.82993,4.2359-13.24427L41.69,279.37177a.499.499,0,0,1,.94989,0l4.26154,13.2359c1.412,4.41473,2.85992,8.81781,4.23675,13.244l4.171,13.26535,4.07068,13.298-4.5368-13.14631-4.43634-13.179c-1.49237-4.38859-2.91364-8.80031-4.37073-13.20036l-4.346-13.20847h.94977L38.29308,292.8891c-1.45587,4.40045-2.87988,8.81131-4.37158,13.20011C30.97631,314.87923,28.01525,323.66411,24.95,332.41507Z" fill="#904d24"/><path d="M20.41979,279.52625c3.81488,8.73636,7.52844,17.5144,11.22662,26.29878l5.50226,13.195,5.47815,13.205h-.92377l5.47736-13.20532c1.834-4.39836,3.63312-8.8111,5.5014-13.19539l5.56531-13.16914,5.663-13.129-5.2096,13.3154-5.30731,13.27522c-1.75586,4.4305-3.58093,8.83255-5.37109,13.249l-5.39527,13.239a.49882.49882,0,0,1-.92389,0l-5.39447-13.23938-5.3703-13.24931C27.38805,297.271,23.8532,288.41947,20.41979,279.52625Z" fill="#904d24"/><path d="M22.68487,308.6888c3.2467-.20622,6.49334-.30284,9.74005-.38284,3.24664-.09142,6.49334-.1043,9.74-.11685,3.24664.01121,6.49334.02447,9.74.11509l4.87.1395c1.62336.08307,3.24671.13173,4.87006.2451-1.62335.11339-3.2467.162-4.87006.24512l-4.87.13949c-3.24665.09063-6.49335.10389-9.74.1151-3.24671-.01257-6.49341-.02544-9.74-.11685C29.17821,308.99166,25.93157,308.895,22.68487,308.6888Z" fill="#904d24"/><rect x="18.52763" y="274.74604" width="47.27462" height="4.78021" rx="1.2906" fill="#904d24"/><rect x="118.94766" y="14.57827" width="16.97137" height="16.97137" rx="4.42305" fill="#dc8758"/><polygon points="81.344 332.345 74.471 332.345 102.329 207.125 116.364 210.903 81.344 332.345" fill="#dc8758"/><polygon points="174.361 332.345 181.235 332.345 153.376 207.125 139.342 210.903 174.361 332.345" fill="#dc8758"/><rect x="8.37151" y="24.59686" width="237.67255" height="199.72765" rx="2.9487" fill="#ffe3cb"/><path d="M147.70823,60.50351a1.07374,1.07374,0,0,1-.07761-2.14459L167.321,56.91119a1.07361,1.07361,0,0,1,.1573,2.14145l-19.6904,1.44773C147.76119,60.50246,147.73445,60.50351,147.70823,60.50351Z" fill="#904d24"/><path d="M167.39968,66.01863h-19.6904a1.07387,1.07387,0,0,1,0-2.14774h19.6904a1.07387,1.07387,0,0,1,0,2.14774Z" fill="#904d24"/><path d="M167.39968,72.981h-19.6904a1.07387,1.07387,0,1,1,0-2.14774h19.6904a1.07387,1.07387,0,1,1,0,2.14774Z" fill="#904d24"/><path d="M167.39968,77.66026h-19.6904a1.07387,1.07387,0,0,1,0-2.14774h19.6904a1.07387,1.07387,0,0,1,0,2.14774Z" fill="#904d24"/><path d="M54.36286,193.30782A1.07392,1.07392,0,0,1,53.289,192.234V57.98191a1.07387,1.07387,0,0,1,2.14774,0V192.234A1.07392,1.07392,0,0,1,54.36286,193.30782Z" fill="#904d24"/><path d="M223.33632,170.68944H31.07908a1.07387,1.07387,0,0,1,0-2.14774H223.33632a1.07387,1.07387,0,0,1,0,2.14774Z" fill="#904d24"/><path d="M64.34072,157.63364a1.07387,1.07387,0,0,1-.89349-1.668l19.29242-29.04061a1.09566,1.09566,0,0,1,.96847-.47716,1.074,1.074,0,0,1,.894.60615l9.69524,20.166L120.5925,94.66861a1.05831,1.05831,0,0,1,1.066-.58832,1.07337,1.07337,0,0,1,.9302.78442l9.29044,33.87618,8.03147-14.19783a1.0741,1.0741,0,0,1,1.92017.1012l10.89076,25.10379,7.73522-21.717a1.07256,1.07256,0,0,1,.89611-.70735,1.06092,1.06092,0,0,1,1.02668.4997l7.63559,12.26141L197.09679,76.105a1.07385,1.07385,0,0,1,1.96788.11064L204.22428,90.242l18.16454-34.0597a1.0739,1.0739,0,0,1,1.895,1.01095L204.9914,93.36769a1.0739,1.0739,0,0,1-1.9553-.13475l-5.13129-13.94877-26.82839,53.47534a1.07437,1.07437,0,0,1-.91079.59147,1.101,1.101,0,0,1-.96061-.50495l-7.472-11.99818-7.902,22.18526a1.07375,1.07375,0,0,1-1.99673.06712l-11.1157-25.62291-8.2517,14.5869a1.07411,1.07411,0,0,1-1.97051-.24434L121.259,98.13666,95.23859,150.13858a1.14375,1.14375,0,0,1-.969.59356,1.07391,1.07391,0,0,1-.95956-.60877l-9.8258-20.4376L65.23631,157.15386A1.0723,1.0723,0,0,1,64.34072,157.63364Z" fill="#904d24"/><path d="M35.73584,141.63a1.07392,1.07392,0,0,1-1.07387-1.07387V76.58639a1.07387,1.07387,0,0,1,2.14774,0v63.96969A1.07392,1.07392,0,0,1,35.73584,141.63Z" fill="#904d24"/><path d="M181.42605,187.488h-.01573L80.95791,186.07283a1.074,1.074,0,0,1-1.05867-1.08907,1.09011,1.09011,0,0,1,1.08908-1.05867l100.45241,1.41522a1.07392,1.07392,0,0,1-.01468,2.14774Z" fill="#904d24"/><rect x="88.22184" y="216.89392" width="79.18373" height="10.80936" rx="2.28475" fill="#dc8758"/><path d="M104.43281,80.63615H84.26543a1,1,0,0,1-1-1v-25.476a1,1,0,0,1,1-1h27.95726a1,1,0,0,1,1,1V72.69657Z" fill="#c0d6f2"/><polygon points="113.223 72.727 104.433 72.727 104.433 80.636 113.223 72.727" fill="#a2aee6"/><rect x="92.25281" y="50.58745" width="10.98" height="5.4" rx="1" fill="#a2aee6"/><rect x="91.1929" y="62.50722" width="14.04004" height="1" fill="#a2aee6"/><rect x="91.1929" y="68.50722" width="14.04004" height="1" fill="#a2aee6"/><path d="M331.6049,130.31965l-1.054-5.07624c-.58869-3.58207-2.65333-4.92383-1.49191-8.36315l1.30235-3.85666,3.01871.31557Z" fill="#1e1d22"/><rect x="355.94783" y="116.14542" width="8.96015" height="14.06272" fill="#1e1d22"/><polygon points="360.527 239.156 305.743 239.156 305.743 208.569 360.428 208.569 360.527 239.156" fill="#065082"/><rect x="293.58312" y="130.96087" width="78.57542" height="74.35661" rx="6.5919" fill="#d6694b"/><path d="M353.53718,108.56064c-5.72544-2.52033-13.00212.85912-18.02374,7.745a2.28016,2.28016,0,0,0-1.33585-.8172c-1.81427-.31668-3.72153,1.92675-4.26,5.011a6.74276,6.74276,0,0,0,.97768,5.345c-2.57783,9.14558-.24963,17.89633,5.95379,20.627,7.104,3.12715,16.59874-2.82441,21.207-13.29323S360.64121,111.68778,353.53718,108.56064Z" fill="#f9977a"/><path d="M358.15275,133.17825h0c-4.60829,10.46882-14.103,16.42038-21.207,13.29323-5.824-2.56369-8.22985-10.434-6.36962-18.9551l-.00152-.00036-14.453,4.49956-4.51137.06661a12.82784,12.82784,0,0,0-9.14793,3.96505c-6.15189,6.51295-6.24818,12.57988-6.24818,12.57988l10.547,8.174-1.31832,52.99884c27.94967,14.23855,55.1812,1.92742,55.1812,1.92742l.88014-8.23388c.76408-7.14818-4.64458-31.92651-4.64458-31.92651l12.65647,19.512L383.227,180.7956a82.51184,82.51184,0,0,0-6.41547-27.40579A39.8578,39.8578,0,0,0,358.15275,133.17825Z" fill="#ffba55"/><path d="M337.21524,146.47147c-3.57177-1.57224-5.85776-5.141-6.66369-9.631l-.00063-.00045s-.12088,44.18649,15.00845,9.66137l-.00421-.00277A11.0449,11.0449,0,0,1,337.21524,146.47147Z" fill="#f9977a"/><path d="M345.55516,146.49865a11.0449,11.0449,0,0,1-8.33992-.02718c-3.57177-1.57224-5.85776-5.141-6.66369-9.631l-.00063-.00045s-.00688,2.56092.19348,5.96756a10.828,10.828,0,0,0,5.37219,5.49495,11.16135,11.16135,0,0,0,8.67887-.09728c.25034-.546.50471-1.11224.76391-1.70386Z" fill="#dd765e"/><rect x="288.83695" y="230.10302" width="88.06776" height="9.05287" rx="1.46487" fill="#d6694b"/><rect x="294.63782" y="239.15589" width="76.20234" height="5.71298" rx="1.46487" fill="#935b50"/><rect x="328.38834" y="244.86887" width="8.43763" height="56.954" fill="#d6694b"/><polygon points="336.826 306.347 391.928 325.407 391.928 318.552 336.826 301.823 328.388 301.823 274.243 318.552 274.243 325.407 328.388 306.347 336.826 306.347" fill="#935b50"/><polygon points="366.649 307.019 365.39 319.579 387.203 330.236 353.708 330.236 353.708 307.019 366.649 307.019" fill="#f9977a"/><path d="M390.56477,331.37811v-.07663a3.17182,3.17182,0,0,0-1.74434-2.83244l-22.64012-11.41012a1.05728,1.05728,0,0,0-1.3211.30905l-4.42538,5.88985a1.05728,1.05728,0,0,1-1.38923.27151l-5.19419-3.11651a1.05727,1.05727,0,0,0-1.60123.9066v10.0587a1.05728,1.05728,0,0,0,1.05727,1.05727h36.201A1.05728,1.05728,0,0,0,390.56477,331.37811Z" fill="#ffba55"/><polygon points="301.09 307.019 302.349 319.579 280.537 330.236 314.031 330.236 314.031 307.019 301.09 307.019" fill="#f9977a"/><path d="M277.17479,331.37811v-.07663a3.17181,3.17181,0,0,1,1.74433-2.83244l22.64013-11.41012a1.05726,1.05726,0,0,1,1.32109.30905l4.42538,5.88985a1.05728,1.05728,0,0,0,1.38923.27151l5.19419-3.11651a1.05727,1.05727,0,0,1,1.60124.9066v10.0587a1.05728,1.05728,0,0,1-1.05727,1.05727h-36.201A1.05727,1.05727,0,0,1,277.17479,331.37811Z" fill="#ffba55"/><rect x="326.41077" y="299.71346" width="12.39277" height="8.96498" rx="1.46487" fill="#e19974"/><rect x="449.22996" y="201.30859" width="8.30646" height="131.75971" fill="#935b50"/><rect x="223.81962" y="194.93794" width="249.61977" height="6.37065" rx="1.43203" fill="#935b50"/><rect x="240.38521" y="201.30859" width="8.30646" height="131.75971" fill="#935b50"/><path d="M233.759,201.30859H464.068a0,0,0,0,1,0,0v16.50861a2.86405,2.86405,0,0,1-2.86405,2.86405H236.623a2.86405,2.86405,0,0,1-2.86405-2.86405V201.30859A0,0,0,0,1,233.759,201.30859Z" fill="#c38f86"/><path d="M296.88891,310.06358l5.70951-77.28557c.62643-6.25863,8.25715-11.3533,14.5499-10.71207,6.26065.62646,14.03248,5.34294,13.404,11.60558L319.56048,312.3351C318.96619,318.28071,296.26038,316.32621,296.88891,310.06358Z" fill="#065ea5"/><path d="M370.576,310.33413l-8.14428-77.067c-.82351-6.23576-8.61112-11.08722-14.88052-10.24784-6.23777.82362-13.857,5.78288-13.03123,12.02257l13.46737,78.27776C348.76886,319.2435,371.40173,316.57383,370.576,310.33413Z" fill="#065ea5"/><path d="M461.96545,194.442S479.82075,83.0589,399.4719,92.8368v17.21761" fill="none" stroke="#fec165" stroke-linecap="round" stroke-linejoin="round" stroke-width="0.79412"/><path d="M379.83348,128.016h40.68215a20.48249,20.48249,0,0,0-40.68215,0Z" fill="#fec165"/><path d="M440.0006,193.23744h25.1533a0,0,0,0,1,0,0v.90639a.79412.79412,0,0,1-.79412.79412H440.79472a.79412.79412,0,0,1-.79412-.79412v-.90639A0,0,0,0,1,440.0006,193.23744Z" transform="translate(905.15449 388.17538) rotate(-180)" fill="#fec165"/><polygon points="436.169 194.952 421.656 194.952 416.766 169.251 441.059 169.251 436.169 194.952" fill="#e19974"/><polygon points="440.501 172.185 441.059 169.251 416.766 169.251 417.324 172.185 440.501 172.185" fill="#d6694b"/><rect x="420.64832" y="182.76813" width="4.33573" height="4.33573" transform="translate(254.60949 -244.80969) rotate(45)" fill="#d6694b"/><rect x="426.77997" y="182.76813" width="4.33573" height="4.33573" transform="translate(256.40541 -249.14542) rotate(45)" fill="#d6694b"/><rect x="432.84101" y="182.76813" width="4.33573" height="4.33573" transform="translate(258.18065 -253.43123) rotate(45)" fill="#d6694b"/><path d="M434.566,147.62089s1.27443,18.00466-6.19514,21.82034C428.37087,169.44123,425.78492,162.61505,434.566,147.62089Z" fill="#558031"/><path d="M410.46311,155.35491s12.21987,2.10842,17.90776,14.08632C428.37087,169.44123,414.93318,164.87724,410.46311,155.35491Z" fill="#849f4c"/><path d="M414.796,178.93861s6.21463-9.29734,13.57492-9.49738C428.37087,169.44123,427.26281,176.92731,414.796,178.93861Z" fill="#a6b862"/><path d="M422.46181,150.18725s8.62284,7.873,5.90906,19.254C428.37087,169.44123,423.59413,164.378,422.46181,150.18725Z" fill="#849f4c"/><path d="M428.37087,169.44123s3.02952-11.0898,18.34444-13.93353C446.71531,155.5077,443.26878,165.60515,428.37087,169.44123Z" fill="#a6b862"/><path d="M450.77227,166.54228s-11.68486-4.81718-22.4014,2.89895C428.37087,169.44123,442.61737,171.15166,450.77227,166.54228Z" fill="#849f4c"/><path d="M450.666,177.75718s-5.64206-9.03726-22.29509-8.316Z" fill="#558031"/><path d="M404.16907,167.9784s15.34586-5.69018,24.40261,1.19076C428.57168,169.16916,419.97205,173.90593,404.16907,167.9784Z" fill="#558031"/><path d="M416.753,151.502s13.69317,9.68477,11.72886,17.94713C428.48191,169.4491,418.982,161.83221,416.753,151.502Z" fill="#558031"/><path d="M440.77336,179.08087s-11.28846-1.92718-12.40249-9.63964C428.37087,169.44123,436.619,169.84976,440.77336,179.08087Z" fill="#849f4c"/><path d="M402.71357,191.32414v.34a3.27057,3.27057,0,0,1-3.26937,3.26937H389.623a3.27057,3.27057,0,0,1-3.26938-3.26937V178.42973a3.27057,3.27057,0,0,1,3.26938-3.26938h9.8212a3.27057,3.27057,0,0,1,3.26937,3.26938v12.89441Z" fill="#f65b2b"/><path d="M408.12754,178.53425H402.7136v1.96162h4.43313v8.86658H402.7136v1.96163h5.41394a.97943.97943,0,0,0,.98081-.98081V179.51506A.97953.97953,0,0,0,408.12754,178.53425Z" fill="#e5caf3"/><rect x="394.5336" y="181.92957" width="4.06333" height="4.06333" rx="0.65387" fill="#ffba55"/><line x1="396.56526" y1="181.92957" x2="396.56526" y2="175.16035" fill="none" stroke="#e5caf3" stroke-miterlimit="10" stroke-width="0.92034"/><path d="M316.39105,132.01556c-.56018,1.2035-1.15026,2.38233-1.73153,3.564l-1.72907,3.54333q-.86178,1.76953-1.64959,3.56958a36.37744,36.37744,0,0,0-1.39325,3.68787,16.07975,16.07975,0,0,1,.86712-3.8894,30.89915,30.89915,0,0,1,1.51615-3.68543c.58117-1.19324,1.2023-2.3656,1.89657-3.495A33.76558,33.76558,0,0,1,316.39105,132.01556Z" fill="#e6952a"/><path d="M353.26923,156.92731c.44589,1.184.81381,2.38708,1.16989,3.59314.36423,1.204.67255,2.42175.98068,3.63952.2912,1.22193.581,2.44422.81568,3.67994.24188,1.23413.47262,2.47082.624,3.727-.447-1.18372-.81464-2.387-1.17114-3.59278-.36365-1.20422-.67228-2.42187-.97944-3.63989-.29025-1.22217-.58026-2.44434-.81442-3.6803C353.65216,159.42011,353.42172,158.18329,353.26923,156.92731Z" fill="#e6952a"/><path d="M320.7862,174.743a32.09689,32.09689,0,0,0,3.56558,3.8562,30.83521,30.83521,0,0,0,4.11477,3.19873,26.68977,26.68977,0,0,0,4.59159,2.44641,32.70281,32.70281,0,0,0,4.997,1.608,20.02874,20.02874,0,0,1-5.19852-1.08191,21.27744,21.27744,0,0,1-2.4744-1.01782,26.67431,26.67431,0,0,1-2.31668-1.34229,22.8192,22.8192,0,0,1-4.10656-3.41089A19.851,19.851,0,0,1,320.7862,174.743Z" fill="#e6952a"/><path d="M320.779,181.36749a13.77639,13.77639,0,0,0,2.40674,1.90515,20.72016,20.72016,0,0,0,2.66437,1.4939,30.55217,30.55217,0,0,0,5.76032,1.98987l1.48812.34778,1.50937.252c1.00009.21558,2.02686.24219,3.03949.39929,1.01859.1,2.0441.13428,3.0694.20838,1.02667.02893,2.05511.02905,3.08987.07824-1.0249.11658-2.05618.188-3.0892.28089-1.03369-.00134-2.07141.02722-3.10834-.00537a31.61125,31.61125,0,0,1-6.17242-.8501,24.47013,24.47013,0,0,1-5.84082-2.20093A15.03558,15.03558,0,0,1,320.779,181.36749Z" fill="#e6952a"/><path d="M309.30065,190.84465H255.07227a5.49325,5.49325,0,0,1-5.47679-5.06834l-2.80979-36.216a5.49326,5.49326,0,0,1,5.47679-5.91816h59.848a5.49325,5.49325,0,0,1,5.47679,5.91816l-2.80979,36.216A5.49324,5.49324,0,0,1,309.30065,190.84465Z" fill="#a2aee6"/><ellipse cx="282.18646" cy="167.24339" rx="5.97665" ry="2.17422" fill="#4f66d0"/><rect x="250.97039" y="190.84465" width="62.43215" height="4.09329" rx="2.04664" fill="#4f66d0"/><path d="M370.59806,184.17011a15.18135,15.18135,0,0,0,1.71118,2.68591,6.92084,6.92084,0,0,0,2.32925,1.9375,4.56147,4.56147,0,0,0,2.92639.37585,8.38436,8.38436,0,0,0,1.5087-.39319c.49741-.18017.96512-.43835,1.47916-.6322-.423.33264-.86435.6593-1.32718.95752a6.59893,6.59893,0,0,1-1.54267.62708,4.71727,4.71727,0,0,1-.8327.16833l-.86258.01746a5.28248,5.28248,0,0,1-1.664-.46,6.31521,6.31521,0,0,1-2.47424-2.2627A8.6135,8.6135,0,0,1,370.59806,184.17011Z" fill="#dd765e"/><path d="M331.90454,118.43622a1.48247,1.48247,0,0,1,1.1868-.665,1.40093,1.40093,0,0,1,.69669.17834,1.30024,1.30024,0,0,1,.48959.4867,2.52116,2.52116,0,0,0-1.17721-.29932A3.29325,3.29325,0,0,0,331.90454,118.43622Z" fill="#dd765e"/><path d="M331.90454,122.06061a17.48407,17.48407,0,0,0,.73279-2.01648,8.3929,8.3929,0,0,0,.2623-1.02747c.08234-.34729.12149-.70092.19147-1.0653a4.39568,4.39568,0,0,1-.103,2.19665A4.65552,4.65552,0,0,1,331.90454,122.06061Z" fill="#dd765e"/><path d="M364.53109,120.15206a5.9571,5.9571,0,0,0-.52918-8.69278q-.34845-.298-.72748-.62905c-2.35886-2.0618-2.34414-3.22678-4.21126-4.48476a12.781,12.781,0,0,0-9.33275-2.47524c-3.22446.10371-4.41834-2.84531-8.49912-1.87827-4.9593,1.17522-5.537,1.70336-8.14022,3.29881-3.6551,2.24017-3.71572,10.23077-1.489,11.3908,1.30925.6821,3.14047-1.13732,3.91144-.37592s-.33967,3.2913-1.23585,5.333c-.62912,1.43322-1.53664,2.9419-1.77692,3.60473l-1.92614,2.2726s-3.87761,10.86608,4.65155,17.77658c8.52553,6.91051,19.12381-5.09775,19.12381-5.09775V136.84c-2.577.62389-5.13963-.16067-7.23975-.85287a17.084,17.084,0,0,1-7.38964-5.02626c-1.33984-1.48541-2.38152-2.74725-3.13825-3.70992a4.335,4.335,0,0,1-.80448-3.706,26.3687,26.3687,0,0,1,.87289-3.22475c.6737-1.87959,1.2101-3.37624,2.505-3.95512,1.14483-.51181,1.75155.19947,3.82328.3955,3.38755.32057,4.162-1.35431,6.98739-1.0547,1.01367.10751,1.14667.34775,5.1417,2.50495,5.92308,3.19827,6.67035,3.23148,7.2511,3.16407A3.85507,3.85507,0,0,0,364.53109,120.15206Zm-26.518,15.50536c1.05467-.11351,1.96568-.04419,4.28015,1.18263a32.31741,32.31741,0,0,1,3.28487,2.35786c1.48687,1.01077,1.14362,1.85753,1.13629,1.99674-.05132.802-1.58208,1.44287-2.81256,1.582-1.52714.17211-2.73567-.46877-5.09775-1.75786-1.96654-1.073-2.95168-1.626-3.07618-2.461A2.852,2.852,0,0,1,338.01305,135.65742Z" fill="#1e1d22"/><path d="M362.75625,140.7252c-.0574-.89122.15951-2.62154,1.36017-5.941,1.56492-4.32656,3.12983-9.87434,3.93182-12.82857a4.69471,4.69471,0,0,0-.6263-3.83464l-4.04525-6.06783a.66837.66837,0,0,0-1.12532.02043l-.28361.46081a.66824.66824,0,0,0,.01309.72091l3.454,5.18094-3.41691-2.69213a.64055.64055,0,0,0-1.037.50314v.00009a.66828.66828,0,0,0,.23425.56569l2.42806,2.05451a1.831,1.831,0,0,1,.63882,1.58365l-.15109,1.48055a7.8297,7.8297,0,0,1-3.4414,5.68681,18.15664,18.15664,0,0,0-3.799,3.42387,14.73129,14.73129,0,0,0-2.49331,14.27949l.095.273,11.60092,41.173a8.1275,8.1275,0,0,0,1.75811,3.20641l1.61974,1.81559a8.12754,8.12754,0,0,0,6.06484,2.71694h0a8.12754,8.12754,0,0,0,8.04406-6.96565l.29018-2.009a8.127,8.127,0,0,0-1.08481-5.36017C378.29175,172.72093,365.12018,150.38305,362.75625,140.7252Z" fill="#f9977a"/><path d="M365.43485,118.43622q.55728.5343,1.08905,1.09094l.03467.03638-.01264.05835c-.28924,1.33667-.62121,2.662-.98758,3.97827-.363,1.317-.75522,2.62634-1.22168,3.91589.2367-1.3507.54761-2.68176.88773-4.00488q.50514-1.98615,1.12179-3.9425l.022.09436Q365.88831,119.06116,365.43485,118.43622Z" fill="#dd765e"/><ellipse cx="344.39448" cy="124.57387" rx="1.57074" ry="1.26474" transform="translate(143.02206 430.47476) rotate(-76.52937)" fill="#1e1d22"/><path d="M342.2932,120.27392s4.29842-.76442,6.56975,1.168" fill="none" stroke="#1e1d22" stroke-linecap="round" stroke-linejoin="round" stroke-width="1.04747"/><path d="M349.73041,126.23248a6.10726,6.10726,0,0,0-.80246,3.23084,14.804,14.804,0,0,0,.33,3.34241l.22006.8341a1.39174,1.39174,0,0,1-.10507,1.05677,1.80079,1.80079,0,0,1-.743.69543,2.76964,2.76964,0,0,1-.89939.29541,4.0762,4.0762,0,0,1-3.2406-1.27307,4.56361,4.56361,0,0,0,3.14554.773,1.81345,1.81345,0,0,0,1.19174-.78.77474.77474,0,0,0,.03165-.61621l-.23374-.82886a11.50328,11.50328,0,0,1-.20407-3.51123A5.12765,5.12765,0,0,1,349.73041,126.23248Z" fill="#dd765e"/><path d="M340.59607,123.091a4.90042,4.90042,0,0,1,3.90936-.56,5.80224,5.80224,0,0,1,3.24817,2.26709c-.57571-.33594-1.12-.66748-1.6867-.93958a9.09531,9.09531,0,0,0-1.73575-.65173,8.00792,8.00792,0,0,0-1.82791-.2594A8.88338,8.88338,0,0,0,340.59607,123.091Z" fill="#1e1d22"/><ellipse cx="353.19261" cy="128.73967" rx="1.57074" ry="1.26474" transform="translate(63.02999 367.74716) rotate(-59.50528)" fill="#1e1d22"/><path d="M357.69015,127.10349s-2.56315-3.53426-5.53952-3.72016" fill="none" stroke="#1e1d22" stroke-linecap="round" stroke-linejoin="round" stroke-width="1.04747"/><path d="M356.956,130.30927a8.891,8.891,0,0,0-1.273-1.42737,8.00932,8.00932,0,0,0-1.49576-1.08228,9.10805,9.10805,0,0,0-1.70175-.736c-.59684-.19751-1.21869-.33679-1.86631-.49463a5.803,5.803,0,0,1,3.91178.62317A4.90043,4.90043,0,0,1,356.956,130.30927Z" fill="#1e1d22"/><path d="M353.95523,136.92426a12.51716,12.51716,0,0,1,1.79361-5.04737,10.5241,10.5241,0,0,1,1.72531-2.08471,8.28722,8.28722,0,0,1,2.24829-1.47437,11.95786,11.95786,0,0,0-2.052,1.67639,11.71442,11.71442,0,0,0-1.61187,2.0774,15.94091,15.94091,0,0,0-1.22071,2.34106A20.194,20.194,0,0,0,353.95523,136.92426Z" fill="#dd765e"/><path d="M336.91439,136.92422a6.78792,6.78792,0,0,0,8.23694,4.3583" fill="#1e1d22"/><rect x="268.50466" y="317.49693" width="8.04212" height="14.94869" rx="1.87619" fill="#d6694b"/><rect x="391.29359" y="317.49693" width="8.04212" height="14.94869" rx="1.87619" transform="translate(790.62929 649.94255) rotate(-180)" fill="#d6694b"/><path d="M303.92749,274.541c.21289,1.1316.39746,2.26148.634,3.3833.20606,1.12549.4253,2.24756.67066,3.363.49536,2.22876.99194,4.45313,1.63037,6.63355a43.95472,43.95472,0,0,0,2.2893,6.38794,18.30157,18.30157,0,0,0,1.66138,2.94018,9.84929,9.84929,0,0,0,2.32617,2.4646,8.80036,8.80036,0,0,1-2.7124-2.1626,18.40057,18.40057,0,0,1-1.96094-2.894,31.10029,31.10029,0,0,1-2.56445-6.46143,51.38265,51.38265,0,0,1-1.42334-6.77368A49.71583,49.71583,0,0,1,303.92749,274.541Z" fill="#065082"/><path d="M306.60864,263.39569c.21265,1.13159.39722,2.26147.63379,3.3833.20605,1.12549.42529,2.24756.67065,3.363.49537,2.22851.992,4.45312,1.63062,6.63354a43.9246,43.9246,0,0,0,2.28906,6.38794,18.28735,18.28735,0,0,0,1.66138,2.93994,9.84937,9.84937,0,0,0,2.32617,2.4646,8.79329,8.79329,0,0,1-2.7124-2.16259,18.41584,18.41584,0,0,1-1.96094-2.8938,31.11823,31.11823,0,0,1-2.56421-6.46143,51.34046,51.34046,0,0,1-1.42358-6.77392A49.71067,49.71067,0,0,1,306.60864,263.39569Z" fill="#065082"/><path d="M475.16773,334.44562H13.16748a1,1,0,0,1,0-2H475.16773a1,1,0,0,1,0,2Z" fill="#935b50"/></g></g></svg>